ISO-10303-21;
HEADER;
FILE_DESCRIPTION(('envelope box'),'2;1');
FILE_NAME('ENV_8.18x15.79x5.5.step','2026-08-23T00:00:00',('Z-Class'),(''),'step_box.py','','');
FILE_SCHEMA(('AUTOMOTIVE_DESIGN { 1 0 10303 214 1 1 1 1 }'));
ENDSEC;
DATA;
#1=APPLICATION_CONTEXT('automotive design');
#2=APPLICATION_PROTOCOL_DEFINITION('international standard','automotive_design',2000,#1);
#3=PRODUCT_CONTEXT('',#1,'mechanical');
#4=PRODUCT('ENV_8.18x15.79x5.5','ENV_8.18x15.79x5.5','',(#3));
#5=PRODUCT_DEFINITION_FORMATION('','',#4);
#6=PRODUCT_DEFINITION_CONTEXT('part definition',#1,'design');
#7=PRODUCT_DEFINITION('design','',#5,#6);
#8=PRODUCT_DEFINITION_SHAPE('','',#7);
#9=CARTESIAN_POINT('',(-4.0900,-7.8950,0.0000));
#10=VERTEX_POINT('',#9);
#11=CARTESIAN_POINT('',(4.0900,-7.8950,0.0000));
#12=VERTEX_POINT('',#11);
#13=CARTESIAN_POINT('',(-4.0900,7.8950,0.0000));
#14=VERTEX_POINT('',#13);
#15=CARTESIAN_POINT('',(4.0900,7.8950,0.0000));
#16=VERTEX_POINT('',#15);
#17=CARTESIAN_POINT('',(-4.0900,-7.8950,5.5000));
#18=VERTEX_POINT('',#17);
#19=CARTESIAN_POINT('',(4.0900,-7.8950,5.5000));
#20=VERTEX_POINT('',#19);
#21=CARTESIAN_POINT('',(-4.0900,7.8950,5.5000));
#22=VERTEX_POINT('',#21);
#23=CARTESIAN_POINT('',(4.0900,7.8950,5.5000));
#24=VERTEX_POINT('',#23);
#25=CARTESIAN_POINT('',(-4.0900,-7.8950,0.0000));
#26=DIRECTION('',(0.0,1.0,0.0));
#27=VECTOR('',#26,1.);
#28=LINE('',#25,#27);
#29=EDGE_CURVE('',#10,#14,#28,.T.);
#30=ORIENTED_EDGE('',*,*,#29,.T.);
#31=CARTESIAN_POINT('',(-4.0900,7.8950,0.0000));
#32=DIRECTION('',(1.0,0.0,0.0));
#33=VECTOR('',#32,1.);
#34=LINE('',#31,#33);
#35=EDGE_CURVE('',#14,#16,#34,.T.);
#36=ORIENTED_EDGE('',*,*,#35,.T.);
#37=CARTESIAN_POINT('',(4.0900,-7.8950,0.0000));
#38=DIRECTION('',(0.0,1.0,0.0));
#39=VECTOR('',#38,1.);
#40=LINE('',#37,#39);
#41=EDGE_CURVE('',#12,#16,#40,.T.);
#42=ORIENTED_EDGE('',*,*,#41,.F.);
#43=CARTESIAN_POINT('',(-4.0900,-7.8950,0.0000));
#44=DIRECTION('',(1.0,0.0,0.0));
#45=VECTOR('',#44,1.);
#46=LINE('',#43,#45);
#47=EDGE_CURVE('',#10,#12,#46,.T.);
#48=ORIENTED_EDGE('',*,*,#47,.F.);
#49=EDGE_LOOP('',(#30,#36,#42,#48));
#50=FACE_OUTER_BOUND('',#49,.T.);
#51=CARTESIAN_POINT('',(-4.0900,-7.8950,0.0000));
#52=DIRECTION('',(0.0,0.0,-1.0));
#53=DIRECTION('',(1.0,0.0,0.0));
#54=AXIS2_PLACEMENT_3D('',#51,#52,#53);
#55=PLANE('',#54);
#56=ADVANCED_FACE('',(#50),#55,.T.);
#57=CARTESIAN_POINT('',(-4.0900,-7.8950,5.5000));
#58=DIRECTION('',(1.0,0.0,0.0));
#59=VECTOR('',#58,1.);
#60=LINE('',#57,#59);
#61=EDGE_CURVE('',#18,#20,#60,.T.);
#62=ORIENTED_EDGE('',*,*,#61,.T.);
#63=CARTESIAN_POINT('',(4.0900,-7.8950,5.5000));
#64=DIRECTION('',(0.0,1.0,0.0));
#65=VECTOR('',#64,1.);
#66=LINE('',#63,#65);
#67=EDGE_CURVE('',#20,#24,#66,.T.);
#68=ORIENTED_EDGE('',*,*,#67,.T.);
#69=CARTESIAN_POINT('',(-4.0900,7.8950,5.5000));
#70=DIRECTION('',(1.0,0.0,0.0));
#71=VECTOR('',#70,1.);
#72=LINE('',#69,#71);
#73=EDGE_CURVE('',#22,#24,#72,.T.);
#74=ORIENTED_EDGE('',*,*,#73,.F.);
#75=CARTESIAN_POINT('',(-4.0900,-7.8950,5.5000));
#76=DIRECTION('',(0.0,1.0,0.0));
#77=VECTOR('',#76,1.);
#78=LINE('',#75,#77);
#79=EDGE_CURVE('',#18,#22,#78,.T.);
#80=ORIENTED_EDGE('',*,*,#79,.F.);
#81=EDGE_LOOP('',(#62,#68,#74,#80));
#82=FACE_OUTER_BOUND('',#81,.T.);
#83=CARTESIAN_POINT('',(-4.0900,-7.8950,5.5000));
#84=DIRECTION('',(0.0,0.0,1.0));
#85=DIRECTION('',(1.0,0.0,0.0));
#86=AXIS2_PLACEMENT_3D('',#83,#84,#85);
#87=PLANE('',#86);
#88=ADVANCED_FACE('',(#82),#87,.T.);
#89=ORIENTED_EDGE('',*,*,#47,.T.);
#90=CARTESIAN_POINT('',(4.0900,-7.8950,0.0000));
#91=DIRECTION('',(0.0,0.0,1.0));
#92=VECTOR('',#91,1.);
#93=LINE('',#90,#92);
#94=EDGE_CURVE('',#12,#20,#93,.T.);
#95=ORIENTED_EDGE('',*,*,#94,.T.);
#96=ORIENTED_EDGE('',*,*,#61,.F.);
#97=CARTESIAN_POINT('',(-4.0900,-7.8950,0.0000));
#98=DIRECTION('',(0.0,0.0,1.0));
#99=VECTOR('',#98,1.);
#100=LINE('',#97,#99);
#101=EDGE_CURVE('',#10,#18,#100,.T.);
#102=ORIENTED_EDGE('',*,*,#101,.F.);
#103=EDGE_LOOP('',(#89,#95,#96,#102));
#104=FACE_OUTER_BOUND('',#103,.T.);
#105=CARTESIAN_POINT('',(-4.0900,-7.8950,0.0000));
#106=DIRECTION('',(0.0,-1.0,0.0));
#107=DIRECTION('',(1.0,0.0,0.0));
#108=AXIS2_PLACEMENT_3D('',#105,#106,#107);
#109=PLANE('',#108);
#110=ADVANCED_FACE('',(#104),#109,.T.);
#111=CARTESIAN_POINT('',(-4.0900,7.8950,0.0000));
#112=DIRECTION('',(0.0,0.0,1.0));
#113=VECTOR('',#112,1.);
#114=LINE('',#111,#113);
#115=EDGE_CURVE('',#14,#22,#114,.T.);
#116=ORIENTED_EDGE('',*,*,#115,.T.);
#117=ORIENTED_EDGE('',*,*,#73,.T.);
#118=CARTESIAN_POINT('',(4.0900,7.8950,0.0000));
#119=DIRECTION('',(0.0,0.0,1.0));
#120=VECTOR('',#119,1.);
#121=LINE('',#118,#120);
#122=EDGE_CURVE('',#16,#24,#121,.T.);
#123=ORIENTED_EDGE('',*,*,#122,.F.);
#124=ORIENTED_EDGE('',*,*,#35,.F.);
#125=EDGE_LOOP('',(#116,#117,#123,#124));
#126=FACE_OUTER_BOUND('',#125,.T.);
#127=CARTESIAN_POINT('',(-4.0900,7.8950,0.0000));
#128=DIRECTION('',(0.0,1.0,0.0));
#129=DIRECTION('',(1.0,0.0,0.0));
#130=AXIS2_PLACEMENT_3D('',#127,#128,#129);
#131=PLANE('',#130);
#132=ADVANCED_FACE('',(#126),#131,.T.);
#133=ORIENTED_EDGE('',*,*,#101,.T.);
#134=ORIENTED_EDGE('',*,*,#79,.T.);
#135=ORIENTED_EDGE('',*,*,#115,.F.);
#136=ORIENTED_EDGE('',*,*,#29,.F.);
#137=EDGE_LOOP('',(#133,#134,#135,#136));
#138=FACE_OUTER_BOUND('',#137,.T.);
#139=CARTESIAN_POINT('',(-4.0900,-7.8950,0.0000));
#140=DIRECTION('',(-1.0,0.0,0.0));
#141=DIRECTION('',(0.0,1.0,0.0));
#142=AXIS2_PLACEMENT_3D('',#139,#140,#141);
#143=PLANE('',#142);
#144=ADVANCED_FACE('',(#138),#143,.T.);
#145=ORIENTED_EDGE('',*,*,#41,.T.);
#146=ORIENTED_EDGE('',*,*,#122,.T.);
#147=ORIENTED_EDGE('',*,*,#67,.F.);
#148=ORIENTED_EDGE('',*,*,#94,.F.);
#149=EDGE_LOOP('',(#145,#146,#147,#148));
#150=FACE_OUTER_BOUND('',#149,.T.);
#151=CARTESIAN_POINT('',(4.0900,-7.8950,0.0000));
#152=DIRECTION('',(1.0,0.0,0.0));
#153=DIRECTION('',(0.0,1.0,0.0));
#154=AXIS2_PLACEMENT_3D('',#151,#152,#153);
#155=PLANE('',#154);
#156=ADVANCED_FACE('',(#150),#155,.T.);
#157=CLOSED_SHELL('',(#56,#88,#110,#132,#144,#156));
#158=MANIFOLD_SOLID_BREP('ENV_8.18x15.79x5.5',#157);
#159=CARTESIAN_POINT('',(0.0000,0.0000,0.0000));
#160=DIRECTION('',(0.0,0.0,1.0));
#161=DIRECTION('',(1.0,0.0,0.0));
#162=AXIS2_PLACEMENT_3D('',#159,#160,#161);
#163=( LENGTH_UNIT() NAMED_UNIT(*) SI_UNIT(.MILLI.,.METRE.) );
#164=( NAMED_UNIT(*) PLANE_ANGLE_UNIT() SI_UNIT($,.RADIAN.) );
#165=( NAMED_UNIT(*) SI_UNIT($,.STERADIAN.) SOLID_ANGLE_UNIT() );
#166=UNCERTAINTY_MEASURE_WITH_UNIT(LENGTH_MEASURE(1.E-06),#163,'distance_accuracy_value','');
#167=( GEOMETRIC_REPRESENTATION_CONTEXT(3) GLOBAL_UNCERTAINTY_ASSIGNED_CONTEXT((#166)) GLOBAL_UNIT_ASSIGNED_CONTEXT((#163,#164,#165)) REPRESENTATION_CONTEXT('','') );
#168=ADVANCED_BREP_SHAPE_REPRESENTATION('ENV_8.18x15.79x5.5',(#162,#158),#167);
#169=SHAPE_DEFINITION_REPRESENTATION(#8,#168);
ENDSEC;
END-ISO-10303-21;
