0
SECTION
2
ENTITIES
0
LWPOLYLINE
8
0
90
340
70
1
10
-51.172
20
-0.400
10
-51.166
20
-1.774
10
-51.161
20
-3.149
10
-51.158
20
-3.836
10
-51.153
20
-5.213
10
-51.148
20
-6.586
10
-51.142
20
-7.961
10
-51.137
20
-9.338
10
-51.132
20
-10.711
10
-51.126
20
-12.088
10
-51.121
20
-13.464
10
-51.116
20
-14.838
10
-51.113
20
-15.525
10
-51.108
20
-16.900
10
-51.102
20
-18.275
10
-51.097
20
-19.651
10
-51.092
20
-21.025
10
-51.086
20
-22.400
10
-51.081
20
-23.775
10
-51.075
20
-25.150
10
-51.068
20
-26.909
10
-50.907
20
-27.874
10
-50.479
20
-29.272
10
-50.248
20
-30.030
10
-50.031
20
-30.742
10
-49.507
20
-32.312
10
-48.948
20
-33.855
10
-48.698
20
-34.540
10
-48.218
20
-35.853
10
-47.529
20
-37.506
10
-47.250
20
-38.156
10
-46.693
20
-39.453
10
-46.034
20
-40.895
10
-45.657
20
-41.683
10
-45.350
20
-42.299
10
-44.729
20
-43.548
10
-44.007
20
-44.921
10
-43.249
20
-46.278
10
-42.908
20
-46.872
10
-42.574
20
-47.457
10
-41.788
20
-48.767
10
-40.970
20
-50.053
10
-40.604
20
-50.608
10
-39.872
20
-51.721
10
-39.405
20
-52.385
10
-38.116
20
-54.145
10
-37.733
20
-54.653
10
-36.815
20
-55.608
10
-36.316
20
-56.063
10
-35.488
20
-56.763
10
-35.067
20
-57.118
10
-34.106
20
-57.909
10
-33.132
20
-58.663
10
-32.246
20
-59.313
10
-31.806
20
-59.636
10
-31.237
20
-60.040
10
-30.224
20
-60.726
10
-29.341
20
-61.287
10
-28.895
20
-61.571
10
-27.802
20
-62.252
10
-26.671
20
-62.876
10
-26.203
20
-63.131
10
-25.285
20
-63.632
10
-24.256
20
-64.157
10
-23.196
20
-64.658
10
-22.717
20
-64.879
10
-22.252
20
-65.093
10
-20.971
20
-65.644
10
-19.802
20
-66.105
10
-19.288
20
-66.302
10
-18.279
20
-66.687
10
-17.633
20
-66.902
10
-16.424
20
-67.292
10
-15.899
20
-67.452
10
-14.860
20
-67.771
10
-14.205
20
-67.944
10
-12.429
20
-68.381
10
-11.911
20
-68.502
10
-10.677
20
-68.767
10
-10.005
20
-68.901
10
-8.929
20
-69.077
10
-8.390
20
-69.166
10
-7.153
20
-69.348
10
-5.917
20
-69.494
10
-5.380
20
-69.545
10
-4.285
20
-69.651
10
-3.597
20
-69.699
10
-2.344
20
-69.764
10
-1.806
20
-69.780
10
-0.703
20
-69.811
10
0.698
20
-69.823
10
1.774
20
-69.781
10
2.335
20
-69.759
10
2.881
20
-69.737
10
4.280
20
-69.661
10
5.346
20
-69.546
10
5.899
20
-69.488
10
7.151
20
-69.346
10
8.374
20
-69.172
10
9.450
20
-68.983
10
9.996
20
-68.887
10
10.687
20
-68.761
10
11.895
20
-68.508
10
12.953
20
-68.249
10
13.497
20
-68.115
10
14.888
20
-67.770
10
15.352
20
-67.639
10
16.337
20
-67.362
10
17.323
20
-67.084
10
18.309
20
-66.807
10
19.294
20
-66.529
10
20.280
20
-66.252
10
21.266
20
-65.974
10
22.252
20
-65.697
10
23.237
20
-65.419
10
24.223
20
-65.142
10
25.208
20
-64.864
10
26.194
20
-64.586
10
27.180
20
-64.309
10
28.166
20
-64.031
10
29.151
20
-63.754
10
30.137
20
-63.476
10
31.124
20
-63.199
10
32.099
20
-62.924
10
33.069
20
-62.650
10
34.040
20
-62.377
10
35.494
20
-61.968
10
36.464
20
-61.695
10
37.434
20
-61.422
10
38.403
20
-61.149
10
39.858
20
-60.739
10
40.828
20
-60.466
10
42.282
20
-60.057
10
43.252
20
-59.784
10
44.706
20
-59.374
10
45.676
20
-59.101
10
47.131
20
-58.692
10
48.100
20
-58.419
10
49.554
20
-58.009
10
51.009
20
-57.599
10
52.464
20
-57.190
10
53.918
20
-56.780
10
55.373
20
-56.371
10
56.827
20
-55.961
10
58.282
20
-55.552
10
59.736
20
-55.142
10
61.676
20
-54.444
10
63.130
20
-53.882
10
65.070
20
-53.131
10
66.524
20
-52.568
10
68.463
20
-51.817
10
70.486
20
-51.033
10
72.065
20
-50.423
10
74.141
20
-49.618
10
76.625
20
-48.657
10
78.612
20
-47.887
10
81.076
20
-46.933
10
83.075
20
-46.098
10
85.127
20
-45.118
10
87.608
20
-43.636
10
89.515
20
-42.290
10
90.838
20
-41.163
10
92.652
20
-39.482
10
94.372
20
-37.671
10
95.994
20
-35.736
10
97.085
20
-34.210
10
98.569
20
-31.965
10
99.602
20
-30.268
10
100.481
20
-28.563
10
99.624
20
18.984
10
98.962
20
19.835
10
97.832
20
21.128
10
96.193
20
22.807
10
95.056
20
23.852
10
93.437
20
25.176
10
91.750
20
26.380
10
89.991
20
27.491
10
88.187
20
28.493
10
85.824
20
29.579
10
83.846
20
30.309
10
81.702
20
31.028
10
79.111
20
31.872
10
77.063
20
32.538
10
75.111
20
33.174
10
73.159
20
33.809
10
71.208
20
34.445
10
69.256
20
35.080
10
67.304
20
35.716
10
65.840
20
36.192
10
63.889
20
36.828
10
62.425
20
37.304
10
60.960
20
37.781
10
59.515
20
38.252
10
58.078
20
38.719
10
56.163
20
39.343
10
55.205
20
39.655
10
53.768
20
40.123
10
52.331
20
40.591
10
50.894
20
41.058
10
49.457
20
41.526
10
48.498
20
41.838
10
47.062
20
42.306
10
46.105
20
42.618
10
44.669
20
43.086
10
43.711
20
43.397
10
42.273
20
43.865
10
41.315
20
44.177
10
39.878
20
44.645
10
38.919
20
44.957
10
37.962
20
45.269
10
37.005
20
45.581
10
35.568
20
46.048
10
34.610
20
46.360
10
33.652
20
46.672
10
32.694
20
46.984
10
31.736
20
47.296
10
30.778
20
47.608
10
29.820
20
47.920
10
28.863
20
48.231
10
27.905
20
48.543
10
26.468
20
49.011
10
25.510
20
49.323
10
24.552
20
49.635
10
23.594
20
49.947
10
23.115
20
50.103
10
22.075
20
50.441
10
21.035
20
50.780
10
19.995
20
51.118
10
18.954
20
51.457
10
17.964
20
51.780
10
17.002
20
52.093
10
16.313
20
52.293
10
15.596
20
52.502
10
15.062
20
52.655
10
14.028
20
52.955
10
12.825
20
53.256
10
11.579
20
53.531
10
11.038
20
53.649
10
10.011
20
53.873
10
8.595
20
54.094
10
8.052
20
54.175
10
7.525
20
54.253
10
5.735
20
54.478
10
5.032
20
54.542
10
4.486
20
54.587
10
3.409
20
54.675
10
2.161
20
54.737
10
1.445
20
54.756
10
0.901
20
54.765
10
-0.180
20
54.781
10
-1.427
20
54.763
10
-2.694
20
54.707
10
-3.242
20
54.679
10
-4.303
20
54.624
10
-4.991
20
54.554
10
-6.274
20
54.414
10
-6.817
20
54.350
10
-7.873
20
54.225
10
-9.286
20
53.988
10
-9.814
20
53.889
10
-10.882
20
53.690
10
-12.114
20
53.426
10
-12.805
20
53.264
10
-13.860
20
52.994
10
-14.375
20
52.861
10
-15.581
20
52.520
10
-16.787
20
52.142
10
-17.302
20
51.972
10
-18.320
20
51.638
10
-18.973
20
51.393
10
-20.167
20
50.931
10
-20.669
20
50.728
10
-21.665
20
50.325
10
-22.298
20
50.041
10
-23.958
20
49.260
10
-24.430
20
49.032
10
-25.561
20
48.456
10
-26.182
20
48.128
10
-27.121
20
47.592
10
-27.588
20
47.326
10
-28.670
20
46.683
10
-29.733
20
46.010
10
-30.181
20
45.714
10
-31.082
20
45.119
10
-31.467
20
44.847
10
-32.700
20
43.953
10
-33.096
20
43.651
10
-34.494
20
42.563
10
-35.022
20
42.140
10
-35.793
20
41.468
10
-36.186
20
41.126
10
-37.100
20
40.311
10
-37.980
20
39.483
10
-38.712
20
38.753
10
-39.082
20
38.385
10
-39.571
20
37.887
10
-40.397
20
37.007
10
-41.078
20
36.231
10
-41.424
20
35.837
10
-42.119
20
35.035
10
-43.094
20
33.814
10
-43.419
20
33.389
10
-43.755
20
32.950
10
-44.345
20
32.174
10
-45.234
20
30.893
10
-45.530
20
30.448
10
-46.105
20
29.580
10
-46.910
20
28.301
10
-47.166
20
27.855
10
-47.443
20
27.372
10
-47.960
20
26.468
10
-48.678
20
25.138
10
-49.149
20
24.176
10
-49.392
20
23.678
10
-49.823
20
22.792
10
-50.230
20
21.877
10
-50.638
20
20.876
10
-50.848
20
20.362
10
-51.135
20
19.660
10
-51.272
20
18.578
10
-51.268
20
17.709
10
-51.263
20
16.710
10
-51.257
20
15.710
10
-51.252
20
14.709
10
-51.247
20
13.710
10
-51.241
20
12.710
10
-51.236
20
11.709
10
-51.231
20
10.710
10
-51.225
20
9.710
10
-51.220
20
8.709
10
-51.215
20
7.710
10
-51.209
20
6.710
10
-51.204
20
5.710
10
-51.198
20
4.709
10
-51.196
20
4.209
10
-51.190
20
3.210
10
-51.185
20
2.209
10
-51.180
20
1.210
10
-51.174
20
0.209
10
-51.172
20
-0.400
0
ENDSEC
0
EOF
