0
SECTION
2
ENTITIES
0
LWPOLYLINE
8
0
90
340
70
1
10
-51.672
20
-0.293
10
-51.667
20
-1.265
10
-51.662
20
-2.236
10
-51.660
20
-2.722
10
-51.657
20
-3.694
10
-51.654
20
-4.666
10
-51.651
20
-5.639
10
-51.649
20
-6.611
10
-51.648
20
-7.584
10
-51.646
20
-8.556
10
-51.646
20
-9.529
10
-51.646
20
-10.503
10
-51.646
20
-10.989
10
-51.646
20
-11.963
10
-51.647
20
-12.937
10
-51.648
20
-13.912
10
-51.650
20
-14.886
10
-51.652
20
-15.861
10
-51.655
20
-16.837
10
-51.657
20
-17.813
10
-51.662
20
-19.277
10
-51.423
20
-20.337
10
-50.941
20
-21.480
10
-50.717
20
-22.015
10
-50.493
20
-22.551
10
-49.956
20
-23.720
10
-49.397
20
-24.842
10
-49.152
20
-25.331
10
-48.660
20
-26.309
10
-47.958
20
-27.535
10
-47.679
20
-28.006
10
-47.123
20
-28.949
10
-46.456
20
-30.010
10
-46.068
20
-30.600
10
-45.759
20
-31.051
10
-45.140
20
-31.954
10
-44.407
20
-32.970
10
-43.643
20
-33.965
10
-43.304
20
-34.394
10
-42.966
20
-34.824
10
-42.168
20
-35.791
10
-41.343
20
-36.734
10
-40.976
20
-37.140
10
-40.242
20
-37.952
10
-39.751
20
-38.460
10
-38.473
20
-39.728
10
-38.079
20
-40.109
10
-37.164
20
-40.966
10
-36.643
20
-41.442
10
-35.806
20
-42.148
10
-35.388
20
-42.501
10
-34.420
20
-43.297
10
-33.429
20
-44.065
10
-32.547
20
-44.713
10
-32.106
20
-45.037
10
-31.521
20
-45.451
10
-30.494
20
-46.146
10
-29.611
20
-46.708
10
-29.170
20
-46.989
10
-28.055
20
-47.685
10
-26.903
20
-48.319
10
-26.444
20
-48.569
10
-25.525
20
-49.070
10
-24.474
20
-49.607
10
-23.407
20
-50.111
10
-22.932
20
-50.330
10
-22.457
20
-50.549
10
-21.159
20
-51.107
10
-19.985
20
-51.571
10
-19.474
20
-51.766
10
-18.452
20
-52.156
10
-17.774
20
-52.382
10
-16.573
20
-52.769
10
-16.049
20
-52.929
10
-15.003
20
-53.250
10
-14.312
20
-53.433
10
-12.556
20
-53.865
10
-12.023
20
-53.990
10
-10.790
20
-54.255
10
-10.089
20
-54.394
10
-9.009
20
-54.571
10
-8.469
20
-54.660
10
-7.221
20
-54.844
10
-5.968
20
-54.991
10
-5.423
20
-55.043
10
-4.334
20
-55.148
10
-3.621
20
-55.199
10
-2.361
20
-55.265
10
-1.814
20
-55.280
10
-0.720
20
-55.311
10
0.709
20
-55.323
10
1.803
20
-55.280
10
2.350
20
-55.258
10
2.896
20
-55.237
10
4.324
20
-55.159
10
5.412
20
-55.043
10
5.956
20
-54.985
10
7.210
20
-54.843
10
8.458
20
-54.665
10
9.536
20
-54.475
10
10.075
20
-54.381
10
10.778
20
-54.253
10
12.013
20
-53.994
10
13.075
20
-53.733
10
13.607
20
-53.603
10
14.994
20
-53.259
10
15.474
20
-53.124
10
16.434
20
-52.854
10
17.394
20
-52.585
10
18.354
20
-52.316
10
19.315
20
-52.048
10
20.275
20
-51.780
10
21.236
20
-51.512
10
22.197
20
-51.245
10
23.159
20
-50.978
10
24.121
20
-50.712
10
25.083
20
-50.446
10
26.045
20
-50.180
10
27.008
20
-49.915
10
27.971
20
-49.650
10
28.935
20
-49.385
10
29.899
20
-49.120
10
30.864
20
-48.856
10
31.821
20
-48.594
10
32.770
20
-48.334
10
33.720
20
-48.074
10
35.146
20
-47.685
10
36.098
20
-47.426
10
37.049
20
-47.167
10
38.001
20
-46.908
10
39.430
20
-46.520
10
40.383
20
-46.261
10
41.814
20
-45.873
10
42.768
20
-45.614
10
44.200
20
-45.226
10
45.155
20
-44.968
10
46.589
20
-44.580
10
47.545
20
-44.321
10
48.980
20
-43.932
10
50.416
20
-43.544
10
51.853
20
-43.155
10
53.290
20
-42.767
10
54.729
20
-42.377
10
56.168
20
-41.988
10
57.608
20
-41.599
10
59.048
20
-41.209
10
60.970
20
-40.688
10
62.412
20
-40.298
10
64.336
20
-39.777
10
65.779
20
-39.385
10
67.705
20
-38.863
10
69.713
20
-38.318
10
71.283
20
-37.892
10
73.346
20
-37.331
10
75.817
20
-36.659
10
77.794
20
-36.121
10
80.266
20
-35.447
10
82.312
20
-34.843
10
84.464
20
-34.116
10
87.062
20
-33.012
10
89.088
20
-31.992
10
90.505
20
-31.129
10
92.393
20
-29.877
10
94.200
20
-28.513
10
95.921
20
-27.042
10
97.089
20
-25.868
10
98.620
20
-24.205
10
99.725
20
-22.899
10
101.027
20
-21.084
10
100.136
20
19.404
10
99.038
20
20.800
10
97.839
20
22.155
10
96.130
20
23.882
10
94.916
20
24.982
10
93.209
20
26.358
10
91.430
20
27.607
10
89.582
20
28.754
10
87.671
20
29.795
10
85.179
20
30.917
10
83.110
20
31.662
10
80.937
20
32.370
10
78.349
20
33.189
10
76.311
20
33.833
10
74.369
20
34.445
10
72.428
20
35.058
10
70.488
20
35.670
10
68.549
20
36.281
10
66.611
20
36.891
10
65.158
20
37.348
10
63.222
20
37.958
10
61.770
20
38.414
10
60.319
20
38.870
10
58.887
20
39.321
10
57.464
20
39.768
10
55.568
20
40.364
10
54.620
20
40.661
10
53.200
20
41.108
10
51.780
20
41.554
10
50.361
20
42.000
10
48.943
20
42.445
10
47.998
20
42.743
10
46.582
20
43.188
10
45.638
20
43.485
10
44.223
20
43.930
10
43.280
20
44.227
10
41.866
20
44.673
10
40.925
20
44.970
10
39.513
20
45.415
10
38.572
20
45.712
10
37.632
20
46.010
10
36.692
20
46.307
10
35.283
20
46.753
10
34.345
20
47.051
10
33.406
20
47.348
10
32.468
20
47.646
10
31.531
20
47.945
10
30.594
20
48.243
10
29.657
20
48.542
10
28.721
20
48.840
10
27.785
20
49.140
10
26.382
20
49.589
10
25.447
20
49.889
10
24.513
20
50.189
10
23.578
20
50.490
10
23.111
20
50.640
10
22.097
20
50.967
10
21.084
20
51.295
10
20.071
20
51.622
10
19.058
20
51.951
10
18.092
20
52.264
10
17.127
20
52.578
10
16.426
20
52.782
10
15.725
20
52.985
10
15.205
20
53.135
10
14.165
20
53.436
10
12.932
20
53.745
10
11.691
20
54.018
10
11.162
20
54.134
10
10.104
20
54.365
10
8.662
20
54.589
10
8.126
20
54.669
10
7.591
20
54.749
10
5.793
20
54.976
10
5.066
20
55.041
10
4.527
20
55.085
10
3.447
20
55.174
10
2.178
20
55.238
10
1.449
20
55.257
10
0.907
20
55.265
10
-0.175
20
55.281
10
-1.446
20
55.262
10
-2.716
20
55.206
10
-3.257
20
55.179
10
-4.338
20
55.124
10
-5.064
20
55.049
10
-6.328
20
54.911
10
-6.865
20
54.847
10
-7.941
20
54.720
10
-9.380
20
54.479
10
-9.912
20
54.379
10
-10.977
20
54.181
10
-12.220
20
53.915
10
-12.930
20
53.749
10
-13.979
20
53.479
10
-14.503
20
53.345
10
-15.726
20
52.999
10
-16.939
20
52.618
10
-17.453
20
52.449
10
-18.482
20
52.111
10
-19.165
20
51.855
10
-20.351
20
51.396
10
-20.853
20
51.193
10
-21.857
20
50.787
10
-22.522
20
50.488
10
-24.162
20
49.717
10
-24.650
20
49.481
10
-25.782
20
48.904
10
-26.428
20
48.563
10
-27.368
20
48.027
10
-27.839
20
47.759
10
-28.932
20
47.110
10
-30.005
20
46.430
10
-30.457
20
46.131
10
-31.360
20
45.534
10
-31.769
20
45.245
10
-32.999
20
44.354
10
-33.410
20
44.040
10
-34.790
20
42.968
10
-35.346
20
42.522
10
-36.126
20
41.841
10
-36.517
20
41.501
10
-37.436
20
40.683
10
-38.331
20
39.839
10
-39.064
20
39.108
10
-39.431
20
38.743
10
-39.931
20
38.235
10
-40.772
20
37.337
10
-41.455
20
36.559
10
-41.796
20
36.170
10
-42.504
20
35.355
10
-43.489
20
34.120
10
-43.818
20
33.690
10
-44.147
20
33.261
10
-44.748
20
32.469
10
-45.649
20
31.171
10
-45.949
20
30.721
10
-46.523
20
29.855
10
-47.340
20
28.556
10
-47.609
20
28.086
10
-47.879
20
27.617
10
-48.395
20
26.715
10
-49.125
20
25.365
10
-49.599
20
24.392
10
-49.837
20
23.906
10
-50.272
20
23.012
10
-50.694
20
22.064
10
-51.103
20
21.061
10
-51.308
20
20.560
10
-51.684
20
19.639
10
-51.858
20
18.202
10
-51.845
20
17.226
10
-51.831
20
16.250
10
-51.818
20
15.275
10
-51.806
20
14.300
10
-51.794
20
13.325
10
-51.782
20
12.351
10
-51.771
20
11.377
10
-51.760
20
10.403
10
-51.750
20
9.430
10
-51.739
20
8.457
10
-51.730
20
7.484
10
-51.721
20
6.512
10
-51.712
20
5.539
10
-51.704
20
4.567
10
-51.700
20
4.081
10
-51.693
20
3.109
10
-51.686
20
2.137
10
-51.680
20
1.165
10
-51.674
20
0.193
10
-51.672
20
-0.293
0
ENDSEC
0
EOF
