0
SECTION
2
ENTITIES
0
LWPOLYLINE
8
0
90
340
70
1
10
-53.172
20
-0.301
10
-53.166
20
-1.301
10
-53.161
20
-2.301
10
-53.158
20
-2.801
10
-53.153
20
-3.801
10
-53.148
20
-4.801
10
-53.142
20
-5.801
10
-53.137
20
-6.801
10
-53.132
20
-7.801
10
-53.126
20
-8.802
10
-53.121
20
-9.802
10
-53.116
20
-10.802
10
-53.113
20
-11.302
10
-53.108
20
-12.302
10
-53.102
20
-13.302
10
-53.097
20
-14.302
10
-53.092
20
-15.302
10
-53.086
20
-16.302
10
-53.081
20
-17.302
10
-53.075
20
-18.302
10
-53.067
20
-19.802
10
-52.817
20
-20.889
10
-52.323
20
-22.063
10
-52.093
20
-22.613
10
-51.862
20
-23.163
10
-51.311
20
-24.363
10
-50.737
20
-25.516
10
-50.485
20
-26.018
10
-49.980
20
-27.022
10
-49.258
20
-28.282
10
-48.973
20
-28.766
10
-48.401
20
-29.734
10
-47.716
20
-30.824
10
-47.317
20
-31.430
10
-47.000
20
-31.893
10
-46.365
20
-32.821
10
-45.611
20
-33.865
10
-44.827
20
-34.886
10
-44.479
20
-35.327
10
-44.131
20
-35.769
10
-43.312
20
-36.762
10
-42.464
20
-37.731
10
-42.087
20
-38.148
10
-41.333
20
-38.981
10
-40.829
20
-39.503
10
-39.516
20
-40.806
10
-39.112
20
-41.197
10
-38.172
20
-42.077
10
-37.636
20
-42.566
10
-36.778
20
-43.291
10
-36.348
20
-43.654
10
-35.354
20
-44.472
10
-34.336
20
-45.260
10
-33.430
20
-45.925
10
-32.977
20
-46.258
10
-32.376
20
-46.684
10
-31.321
20
-47.398
10
-30.414
20
-47.975
10
-29.961
20
-48.263
10
-28.815
20
-48.978
10
-27.633
20
-49.629
10
-27.161
20
-49.887
10
-26.218
20
-50.401
10
-25.138
20
-50.952
10
-24.042
20
-51.470
10
-23.554
20
-51.695
10
-23.066
20
-51.920
10
-21.733
20
-52.493
10
-20.527
20
-52.969
10
-20.002
20
-53.170
10
-18.952
20
-53.571
10
-18.256
20
-53.803
10
-17.022
20
-54.200
10
-16.485
20
-54.364
10
-15.410
20
-54.694
10
-14.700
20
-54.882
10
-12.896
20
-55.326
10
-12.349
20
-55.454
10
-11.082
20
-55.726
10
-10.362
20
-55.869
10
-9.253
20
-56.051
10
-8.698
20
-56.142
10
-7.416
20
-56.331
10
-6.129
20
-56.483
10
-5.570
20
-56.536
10
-4.451
20
-56.644
10
-3.719
20
-56.695
10
-2.425
20
-56.763
10
-1.863
20
-56.779
10
-0.740
20
-56.811
10
0.729
20
-56.823
10
1.852
20
-56.779
10
2.413
20
-56.757
10
2.975
20
-56.735
10
4.441
20
-56.655
10
5.558
20
-56.535
10
6.117
20
-56.476
10
7.405
20
-56.330
10
8.688
20
-56.147
10
9.795
20
-55.953
10
10.348
20
-55.856
10
11.071
20
-55.724
10
12.338
20
-55.459
10
13.430
20
-55.191
10
13.976
20
-55.057
10
15.401
20
-54.703
10
15.894
20
-54.564
10
16.879
20
-54.287
10
17.865
20
-54.009
10
18.851
20
-53.732
10
19.836
20
-53.454
10
20.822
20
-53.177
10
21.808
20
-52.899
10
22.794
20
-52.622
10
23.779
20
-52.344
10
24.765
20
-52.067
10
25.751
20
-51.789
10
26.736
20
-51.511
10
27.722
20
-51.234
10
28.708
20
-50.956
10
29.693
20
-50.679
10
30.679
20
-50.401
10
31.665
20
-50.124
10
32.642
20
-49.849
10
33.612
20
-49.575
10
34.582
20
-49.302
10
36.036
20
-48.893
10
37.006
20
-48.620
10
37.976
20
-48.347
10
38.945
20
-48.074
10
40.400
20
-47.664
10
41.370
20
-47.391
10
42.824
20
-46.982
10
43.794
20
-46.709
10
45.248
20
-46.299
10
46.218
20
-46.026
10
47.673
20
-45.617
10
48.642
20
-45.344
10
50.097
20
-44.934
10
51.551
20
-44.524
10
53.006
20
-44.115
10
54.460
20
-43.705
10
55.915
20
-43.296
10
57.369
20
-42.886
10
58.824
20
-42.477
10
60.278
20
-42.067
10
62.218
20
-41.521
10
63.672
20
-41.112
10
65.612
20
-40.566
10
67.066
20
-40.156
10
69.005
20
-39.610
10
71.028
20
-39.040
10
72.607
20
-38.596
10
74.683
20
-38.011
10
77.167
20
-37.312
10
79.154
20
-36.752
10
81.638
20
-36.053
10
83.694
20
-35.428
10
85.855
20
-34.678
10
88.464
20
-33.544
10
90.500
20
-32.499
10
91.924
20
-31.617
10
93.820
20
-30.339
10
95.636
20
-28.948
10
97.365
20
-27.449
10
98.539
20
-26.254
10
100.077
20
-24.562
10
101.187
20
-23.235
10
102.495
20
-21.391
10
101.609
20
19.689
10
100.506
20
21.108
10
99.302
20
22.486
10
97.586
20
24.243
10
96.367
20
25.364
10
94.652
20
26.766
10
92.866
20
28.041
10
91.011
20
29.212
10
89.091
20
30.278
10
86.589
20
31.428
10
84.511
20
32.196
10
82.330
20
32.927
10
79.730
20
33.774
10
77.682
20
34.440
10
75.730
20
35.076
10
73.778
20
35.711
10
71.827
20
36.347
10
69.875
20
36.982
10
67.923
20
37.618
10
66.459
20
38.094
10
64.508
20
38.730
10
63.044
20
39.206
10
61.580
20
39.683
10
60.134
20
40.154
10
58.697
20
40.621
10
56.782
20
41.245
10
55.824
20
41.557
10
54.387
20
42.025
10
52.950
20
42.493
10
51.513
20
42.960
10
50.076
20
43.428
10
49.118
20
43.740
10
47.682
20
44.208
10
46.724
20
44.520
10
45.287
20
44.988
10
44.329
20
45.299
10
42.892
20
45.767
10
41.934
20
46.079
10
40.497
20
46.547
10
39.539
20
46.859
10
38.582
20
47.171
10
37.624
20
47.483
10
36.187
20
47.950
10
35.229
20
48.262
10
34.271
20
48.574
10
33.313
20
48.886
10
32.355
20
49.198
10
31.397
20
49.510
10
30.439
20
49.822
10
29.482
20
50.133
10
28.524
20
50.445
10
27.087
20
50.913
10
26.129
20
51.225
10
25.171
20
51.537
10
24.213
20
51.849
10
23.734
20
52.005
10
22.694
20
52.343
10
21.654
20
52.682
10
20.614
20
53.020
10
19.574
20
53.359
10
18.583
20
53.682
10
17.591
20
54.005
10
16.871
20
54.214
10
16.152
20
54.423
10
15.617
20
54.577
10
14.549
20
54.886
10
13.283
20
55.203
10
12.008
20
55.484
10
11.465
20
55.603
10
10.378
20
55.840
10
8.897
20
56.071
10
8.347
20
56.153
10
7.797
20
56.235
10
5.950
20
56.467
10
5.204
20
56.535
10
4.649
20
56.580
10
3.541
20
56.671
10
2.237
20
56.736
10
1.488
20
56.756
10
0.932
20
56.765
10
-0.180
20
56.781
10
-1.485
20
56.762
10
-2.790
20
56.705
10
-3.345
20
56.676
10
-4.456
20
56.619
10
-5.201
20
56.543
10
-6.499
20
56.401
10
-7.052
20
56.336
10
-8.156
20
56.205
10
-9.635
20
55.957
10
-10.181
20
55.855
10
-11.275
20
55.651
10
-12.551
20
55.378
10
-13.281
20
55.207
10
-14.358
20
54.931
10
-14.897
20
54.792
10
-16.153
20
54.437
10
-17.399
20
54.046
10
-17.927
20
53.872
10
-18.983
20
53.525
10
-19.685
20
53.262
10
-20.903
20
52.791
10
-21.419
20
52.582
10
-22.450
20
52.165
10
-23.133
20
51.858
10
-24.818
20
51.066
10
-25.319
20
50.824
10
-26.482
20
50.231
10
-27.145
20
49.881
10
-28.111
20
49.330
10
-28.594
20
49.055
10
-29.717
20
48.388
10
-30.819
20
47.689
10
-31.283
20
47.383
10
-32.211
20
46.770
10
-32.631
20
46.473
10
-33.894
20
45.558
10
-34.317
20
45.235
10
-35.734
20
44.133
10
-36.305
20
43.675
10
-37.107
20
42.976
10
-37.508
20
42.627
10
-38.451
20
41.786
10
-39.371
20
40.920
10
-40.124
20
40.170
10
-40.501
20
39.794
10
-41.014
20
39.272
10
-41.878
20
38.351
10
-42.580
20
37.551
10
-42.931
20
37.152
10
-43.657
20
36.314
10
-44.669
20
35.046
10
-45.007
20
34.605
10
-45.345
20
34.163
10
-45.963
20
33.350
10
-46.888
20
32.017
10
-47.196
20
31.554
10
-47.785
20
30.665
10
-48.625
20
29.331
10
-48.901
20
28.849
10
-49.178
20
28.366
10
-49.708
20
27.440
10
-50.457
20
26.053
10
-50.946
20
25.054
10
-51.190
20
24.554
10
-51.636
20
23.636
10
-52.070
20
22.662
10
-52.490
20
21.632
10
-52.700
20
21.118
10
-53.086
20
20.172
10
-53.273
20
18.699
10
-53.268
20
17.699
10
-53.263
20
16.699
10
-53.257
20
15.699
10
-53.252
20
14.699
10
-53.247
20
13.699
10
-53.241
20
12.699
10
-53.236
20
11.699
10
-53.231
20
10.699
10
-53.225
20
9.699
10
-53.220
20
8.699
10
-53.215
20
7.699
10
-53.209
20
6.699
10
-53.204
20
5.699
10
-53.198
20
4.699
10
-53.196
20
4.199
10
-53.190
20
3.199
10
-53.185
20
2.199
10
-53.180
20
1.199
10
-53.174
20
0.199
10
-53.172
20
-0.301
0
ENDSEC
0
EOF
