0
SECTION
2
ENTITIES
0
LWPOLYLINE
8
0
90
340
70
1
10
-56.192
20
-0.576
10
-56.196
20
-1.585
10
-56.200
20
-2.595
10
-56.204
20
-3.604
10
-56.208
20
-4.613
10
-56.212
20
-5.622
10
-56.216
20
-6.632
10
-56.220
20
-7.641
10
-56.224
20
-8.650
10
-56.228
20
-9.660
10
-56.232
20
-10.669
10
-56.236
20
-11.678
10
-56.240
20
-12.687
10
-56.243
20
-13.697
10
-56.247
20
-14.706
10
-56.251
20
-15.715
10
-56.255
20
-16.724
10
-56.261
20
-18.238
10
-56.265
20
-19.248
10
-56.191
20
-20.420
10
-56.080
20
-20.807
10
-55.592
20
-22.003
10
-55.104
20
-23.199
10
-54.860
20
-23.797
10
-54.616
20
-24.395
10
-54.052
20
-25.556
10
-53.488
20
-26.718
10
-52.923
20
-27.880
10
-52.604
20
-28.441
10
-52.285
20
-29.003
10
-51.327
20
-30.687
10
-51.008
20
-31.248
10
-50.653
20
-31.788
10
-49.589
20
-33.407
10
-49.234
20
-33.946
10
-48.879
20
-34.486
10
-48.101
20
-35.517
10
-47.323
20
-36.548
10
-46.545
20
-37.578
10
-46.123
20
-38.068
10
-45.701
20
-38.557
10
-44.858
20
-39.535
10
-44.015
20
-40.514
10
-43.562
20
-40.974
10
-42.658
20
-41.896
10
-41.753
20
-42.818
10
-41.300
20
-43.279
10
-40.338
20
-44.140
10
-39.375
20
-45.001
10
-38.894
20
-45.432
10
-38.413
20
-45.862
10
-37.396
20
-46.659
10
-36.380
20
-47.456
10
-35.364
20
-48.253
10
-34.831
20
-48.618
10
-34.298
20
-48.983
10
-32.699
20
-50.077
10
-32.166
20
-50.442
10
-31.611
20
-50.772
10
-29.944
20
-51.760
10
-29.389
20
-52.090
10
-28.834
20
-52.419
10
-27.682
20
-53.005
10
-26.531
20
-53.591
10
-25.380
20
-54.176
10
-24.787
20
-54.431
10
-24.193
20
-54.686
10
-22.413
20
-55.451
10
-21.820
20
-55.706
10
-21.211
20
-55.922
10
-19.994
20
-56.354
10
-18.777
20
-56.786
10
-18.168
20
-57.002
10
-16.926
20
-57.355
10
-15.683
20
-57.707
10
-15.062
20
-57.883
10
-14.441
20
-58.059
10
-13.178
20
-58.331
10
-11.915
20
-58.602
10
-10.652
20
-58.873
10
-10.013
20
-58.967
10
-8.736
20
-59.156
10
-7.458
20
-59.345
10
-6.819
20
-59.439
10
-6.175
20
-59.492
10
-4.244
20
-59.651
10
-3.601
20
-59.703
10
-2.957
20
-59.756
10
-1.666
20
-59.778
10
-0.374
20
-59.800
10
0.917
20
-59.823
10
1.562
20
-59.792
10
2.207
20
-59.761
10
4.143
20
-59.669
10
4.788
20
-59.638
10
5.429
20
-59.565
10
6.713
20
-59.420
10
7.996
20
-59.275
10
8.638
20
-59.203
10
9.909
20
-58.975
10
11.181
20
-58.747
10
11.816
20
-58.634
10
12.452
20
-58.520
10
13.706
20
-58.210
10
14.960
20
-57.900
10
16.214
20
-57.591
10
17.190
20
-57.316
10
18.166
20
-57.041
10
19.141
20
-56.767
10
20.117
20
-56.492
10
21.093
20
-56.217
10
22.069
20
-55.942
10
23.532
20
-55.530
10
24.508
20
-55.255
10
25.484
20
-54.981
10
26.460
20
-54.706
10
27.436
20
-54.431
10
28.412
20
-54.156
10
29.387
20
-53.882
10
30.851
20
-53.470
10
31.827
20
-53.195
10
32.803
20
-52.920
10
33.778
20
-52.645
10
34.754
20
-52.371
10
36.218
20
-51.958
10
37.194
20
-51.684
10
38.170
20
-51.409
10
39.633
20
-50.997
10
40.609
20
-50.722
10
42.073
20
-50.310
10
43.049
20
-50.035
10
44.512
20
-49.623
10
45.488
20
-49.348
10
46.952
20
-48.936
10
48.416
20
-48.524
10
49.391
20
-48.249
10
50.855
20
-47.837
10
52.319
20
-47.425
10
53.782
20
-47.013
10
55.246
20
-46.601
10
56.710
20
-46.189
10
58.174
20
-45.776
10
59.637
20
-45.364
10
61.589
20
-44.815
10
63.053
20
-44.403
10
65.004
20
-43.853
10
66.468
20
-43.441
10
68.420
20
-42.892
10
70.371
20
-42.342
10
72.323
20
-41.793
10
74.274
20
-41.243
10
76.226
20
-40.694
10
78.178
20
-40.144
10
80.617
20
-39.457
10
83.058
20
-38.750
10
85.011
20
-38.166
10
87.402
20
-37.283
10
89.271
20
-36.472
10
91.549
20
-35.329
10
93.310
20
-34.301
10
95.425
20
-32.880
10
97.051
20
-31.651
10
98.628
20
-30.358
10
100.097
20
-28.945
10
101.509
20
-27.475
10
102.862
20
-25.949
10
104.091
20
-24.321
10
105.253
20
-22.647
10
106.348
20
-20.927
10
105.667
20
19.076
10
104.489
20
20.825
10
103.493
20
22.176
10
102.110
20
23.844
10
100.570
20
25.514
10
99.151
20
26.892
10
97.830
20
28.053
10
96.048
20
29.462
10
94.002
20
30.883
10
92.326
20
31.934
10
90.319
20
32.999
10
88.257
20
33.953
10
85.940
20
34.864
10
83.587
20
35.673
10
81.177
20
36.458
10
79.249
20
37.085
10
77.321
20
37.713
10
74.911
20
38.498
10
72.983
20
39.125
10
71.055
20
39.753
10
69.609
20
40.224
10
67.681
20
40.851
10
65.754
20
41.479
10
64.308
20
41.950
10
62.862
20
42.421
10
60.934
20
43.048
10
59.488
20
43.519
10
58.042
20
43.990
10
56.596
20
44.461
10
55.150
20
44.931
10
53.704
20
45.402
10
52.258
20
45.873
10
51.294
20
46.187
10
49.848
20
46.657
10
48.402
20
47.128
10
47.439
20
47.442
10
45.993
20
47.913
10
44.547
20
48.384
10
43.583
20
48.697
10
42.137
20
49.168
10
41.173
20
49.482
10
40.209
20
49.796
10
38.763
20
50.267
10
37.799
20
50.580
10
36.835
20
50.894
10
35.389
20
51.365
10
34.425
20
51.679
10
33.461
20
51.993
10
32.497
20
52.307
10
31.533
20
52.620
10
30.087
20
53.091
10
29.124
20
53.405
10
28.160
20
53.719
10
27.196
20
54.033
10
26.232
20
54.347
10
25.268
20
54.660
10
24.304
20
54.974
10
23.340
20
55.288
10
22.376
20
55.602
10
21.412
20
55.916
10
20.448
20
56.230
10
19.002
20
56.700
10
17.913
20
57.034
10
17.306
20
57.210
10
15.484
20
57.740
10
14.877
20
57.917
10
14.260
20
58.055
10
13.025
20
58.330
10
11.791
20
58.606
10
11.174
20
58.743
10
9.924
20
58.940
10
8.675
20
59.137
10
7.425
20
59.333
10
6.796
20
59.392
10
6.166
20
59.450
10
4.277
20
59.626
10
3.647
20
59.685
10
3.015
20
59.703
10
1.119
20
59.759
10
0.487
20
59.777
10
-0.145
20
59.796
10
-1.409
20
59.752
10
-2.673
20
59.709
10
-3.937
20
59.666
10
-4.567
20
59.604
10
-5.825
20
59.481
10
-7.084
20
59.358
10
-7.713
20
59.296
10
-8.338
20
59.194
10
-10.210
20
58.890
10
-10.834
20
58.789
10
-11.459
20
58.687
10
-12.692
20
58.406
10
-13.925
20
58.124
10
-15.158
20
57.842
10
-15.764
20
57.663
10
-16.977
20
57.304
10
-18.189
20
56.944
10
-18.796
20
56.765
10
-19.983
20
56.329
10
-21.171
20
55.894
10
-22.358
20
55.459
10
-22.937
20
55.204
10
-23.515
20
54.949
10
-25.252
20
54.184
10
-25.830
20
53.929
10
-26.392
20
53.638
10
-27.515
20
53.056
10
-28.637
20
52.474
10
-29.199
20
52.183
10
-30.282
20
51.531
10
-31.366
20
50.878
10
-32.450
20
50.226
10
-32.970
20
49.866
10
-33.490
20
49.507
10
-35.050
20
48.427
10
-35.570
20
48.067
10
-36.066
20
47.675
10
-37.555
20
46.499
10
-38.051
20
46.107
10
-38.547
20
45.715
10
-39.488
20
44.870
10
-40.429
20
44.024
10
-41.369
20
43.179
10
-41.812
20
42.727
10
-42.697
20
41.824
10
-43.582
20
40.921
10
-44.025
20
40.469
10
-44.438
20
39.990
10
-45.677
20
38.554
10
-46.090
20
38.075
10
-46.503
20
37.596
10
-47.267
20
36.588
10
-48.031
20
35.580
10
-48.794
20
34.571
10
-49.144
20
34.044
10
-49.842
20
32.990
10
-50.540
20
31.935
10
-50.889
20
31.408
10
-51.519
20
30.311
10
-52.149
20
29.215
10
-52.779
20
28.118
10
-53.059
20
27.551
10
-53.339
20
26.983
10
-54.177
20
25.282
10
-54.457
20
24.715
10
-54.700
20
24.131
10
-55.186
20
22.963
10
-55.672
20
21.796
10
-55.916
20
21.212
10
-56.099
20
20.338
10
-56.116
20
18.868
10
-56.120
20
17.841
10
-56.124
20
16.814
10
-56.128
20
15.787
10
-56.132
20
14.759
10
-56.136
20
13.732
10
-56.140
20
12.705
10
-56.144
20
11.678
10
-56.148
20
10.651
10
-56.152
20
9.624
10
-56.156
20
8.597
10
-56.160
20
7.570
10
-56.164
20
6.542
10
-56.168
20
5.515
10
-56.172
20
4.488
10
-56.176
20
3.461
10
-56.180
20
2.452
10
-56.182
20
1.947
10
-56.186
20
0.938
10
-56.192
20
-0.576
0
ENDSEC
0
EOF
