0
SECTION
2
ENTITIES
0
LWPOLYLINE
8
OUTLINE
90
340
70
1
10
-45.572
20
160.609
10
-45.566
20
159.610
10
-45.561
20
158.610
10
-45.558
20
158.110
10
-45.553
20
157.109
10
-45.548
20
156.110
10
-45.542
20
155.110
10
-45.537
20
154.109
10
-45.532
20
153.110
10
-45.526
20
152.109
10
-45.521
20
151.108
10
-45.516
20
150.109
10
-45.513
20
149.609
10
-45.508
20
148.609
10
-45.502
20
147.609
10
-45.497
20
146.608
10
-45.492
20
145.609
10
-45.486
20
144.609
10
-45.481
20
143.609
10
-45.475
20
142.609
10
-45.468
20
141.330
10
-45.307
20
140.628
10
-44.879
20
139.611
10
-44.648
20
139.060
10
-44.431
20
138.542
10
-43.907
20
137.400
10
-43.348
20
136.278
10
-43.098
20
135.780
10
-42.618
20
134.825
10
-41.929
20
133.623
10
-41.650
20
133.150
10
-41.093
20
132.207
10
-40.434
20
131.158
10
-40.057
20
130.585
10
-39.750
20
130.137
10
-39.129
20
129.229
10
-38.407
20
128.230
10
-37.649
20
127.243
10
-37.308
20
126.811
10
-36.974
20
126.386
10
-36.188
20
125.433
10
-35.370
20
124.498
10
-35.004
20
124.094
10
-34.272
20
123.285
10
-33.805
20
122.802
10
-32.516
20
121.522
10
-32.133
20
121.152
10
-31.215
20
120.292
10
-30.716
20
119.837
10
-29.888
20
119.137
10
-29.467
20
118.782
10
-28.506
20
117.991
10
-27.532
20
117.237
10
-26.646
20
116.587
10
-26.206
20
116.264
10
-25.637
20
115.860
10
-24.624
20
115.174
10
-23.741
20
114.613
10
-23.295
20
114.329
10
-22.202
20
113.648
10
-21.071
20
113.024
10
-20.603
20
112.769
10
-19.685
20
112.268
10
-18.656
20
111.743
10
-17.596
20
111.242
10
-17.117
20
111.021
10
-16.652
20
110.807
10
-15.371
20
110.256
10
-14.202
20
109.795
10
-13.688
20
109.598
10
-12.679
20
109.213
10
-12.033
20
108.998
10
-10.824
20
108.608
10
-10.299
20
108.448
10
-9.260
20
108.129
10
-8.605
20
107.956
10
-6.829
20
107.519
10
-6.311
20
107.398
10
-5.077
20
107.133
10
-4.405
20
106.999
10
-3.329
20
106.823
10
-2.790
20
106.734
10
-1.553
20
106.552
10
-0.317
20
106.406
10
0.220
20
106.355
10
1.315
20
106.249
10
2.003
20
106.201
10
3.256
20
106.136
10
3.794
20
106.120
10
4.897
20
106.089
10
6.298
20
106.077
10
7.374
20
106.119
10
7.935
20
106.141
10
8.481
20
106.163
10
9.880
20
106.239
10
10.946
20
106.354
10
11.499
20
106.412
10
12.751
20
106.554
10
13.974
20
106.728
10
15.050
20
106.917
10
15.596
20
107.013
10
16.287
20
107.139
10
17.495
20
107.392
10
18.553
20
107.651
10
19.097
20
107.785
10
20.488
20
108.130
10
20.952
20
108.261
10
21.937
20
108.538
10
22.923
20
108.816
10
23.909
20
109.093
10
24.894
20
109.371
10
25.880
20
109.648
10
26.866
20
109.926
10
27.852
20
110.203
10
28.837
20
110.481
10
29.823
20
110.758
10
30.808
20
111.036
10
31.794
20
111.314
10
32.780
20
111.591
10
33.766
20
111.869
10
34.751
20
112.146
10
35.737
20
112.424
10
36.724
20
112.701
10
37.699
20
112.976
10
38.669
20
113.250
10
39.640
20
113.523
10
41.094
20
113.932
10
42.064
20
114.205
10
43.034
20
114.478
10
44.003
20
114.751
10
45.458
20
115.161
10
46.428
20
115.434
10
47.882
20
115.843
10
48.852
20
116.116
10
50.306
20
116.526
10
51.276
20
116.799
10
52.731
20
117.208
10
53.700
20
117.481
10
55.154
20
117.891
10
56.609
20
118.301
10
58.064
20
118.710
10
59.518
20
119.120
10
60.973
20
119.529
10
62.427
20
119.939
10
63.882
20
120.348
10
65.336
20
120.758
10
67.276
20
121.304
10
68.730
20
121.713
10
70.670
20
122.259
10
72.124
20
122.669
10
74.063
20
123.215
10
76.086
20
123.785
10
77.665
20
124.229
10
79.741
20
124.814
10
82.225
20
125.513
10
84.212
20
126.073
10
86.676
20
126.767
10
88.675
20
127.374
10
90.727
20
128.087
10
93.208
20
129.165
10
95.115
20
130.144
10
96.438
20
130.963
10
98.252
20
132.186
10
99.972
20
133.503
10
101.594
20
134.910
10
102.685
20
136.020
10
104.169
20
137.653
10
105.202
20
138.887
10
106.081
20
140.127
10
105.224
20
179.884
10
104.562
20
180.735
10
103.432
20
182.028
10
101.793
20
183.707
10
100.656
20
184.752
10
99.037
20
186.076
10
97.350
20
187.280
10
95.591
20
188.391
10
93.787
20
189.393
10
91.424
20
190.479
10
89.446
20
191.209
10
87.302
20
191.928
10
84.711
20
192.772
10
82.663
20
193.438
10
80.711
20
194.074
10
78.759
20
194.709
10
76.808
20
195.345
10
74.856
20
195.980
10
72.904
20
196.616
10
71.440
20
197.092
10
69.489
20
197.728
10
68.025
20
198.204
10
66.560
20
198.681
10
65.115
20
199.152
10
63.678
20
199.619
10
61.763
20
200.243
10
60.805
20
200.555
10
59.368
20
201.023
10
57.931
20
201.491
10
56.494
20
201.958
10
55.057
20
202.426
10
54.098
20
202.738
10
52.662
20
203.206
10
51.705
20
203.518
10
50.269
20
203.986
10
49.311
20
204.297
10
47.873
20
204.765
10
46.915
20
205.077
10
45.478
20
205.545
10
44.519
20
205.857
10
43.562
20
206.169
10
42.605
20
206.481
10
41.168
20
206.948
10
40.210
20
207.260
10
39.252
20
207.572
10
38.294
20
207.884
10
37.336
20
208.196
10
36.378
20
208.508
10
35.420
20
208.820
10
34.463
20
209.131
10
33.505
20
209.443
10
32.068
20
209.911
10
31.110
20
210.223
10
30.152
20
210.535
10
29.194
20
210.847
10
28.715
20
211.003
10
27.675
20
211.341
10
26.635
20
211.680
10
25.595
20
212.018
10
24.554
20
212.357
10
23.564
20
212.680
10
22.602
20
212.993
10
21.913
20
213.193
10
21.196
20
213.402
10
20.662
20
213.555
10
19.628
20
213.855
10
18.425
20
214.156
10
17.179
20
214.431
10
16.638
20
214.549
10
15.611
20
214.773
10
14.195
20
214.994
10
13.652
20
215.075
10
13.125
20
215.153
10
11.335
20
215.378
10
10.632
20
215.442
10
10.086
20
215.487
10
9.009
20
215.575
10
7.761
20
215.637
10
7.045
20
215.656
10
6.501
20
215.665
10
5.420
20
215.681
10
4.173
20
215.663
10
2.906
20
215.607
10
2.358
20
215.579
10
1.297
20
215.524
10
0.609
20
215.454
10
-0.674
20
215.314
10
-1.217
20
215.250
10
-2.273
20
215.125
10
-3.686
20
214.888
10
-4.214
20
214.789
10
-5.282
20
214.590
10
-6.514
20
214.326
10
-7.205
20
214.164
10
-8.260
20
213.894
10
-8.775
20
213.761
10
-9.981
20
213.420
10
-11.187
20
213.042
10
-11.702
20
212.872
10
-12.720
20
212.538
10
-13.373
20
212.293
10
-14.567
20
211.831
10
-15.069
20
211.628
10
-16.065
20
211.225
10
-16.698
20
210.941
10
-18.358
20
210.160
10
-18.830
20
209.932
10
-19.961
20
209.356
10
-20.582
20
209.028
10
-21.521
20
208.492
10
-21.988
20
208.226
10
-23.070
20
207.583
10
-24.133
20
206.910
10
-24.581
20
206.614
10
-25.482
20
206.019
10
-25.867
20
205.747
10
-27.100
20
204.853
10
-27.496
20
204.551
10
-28.894
20
203.463
10
-29.422
20
203.040
10
-30.193
20
202.368
10
-30.586
20
202.026
10
-31.500
20
201.211
10
-32.380
20
200.383
10
-33.112
20
199.653
10
-33.482
20
199.285
10
-33.971
20
198.787
10
-34.797
20
197.907
10
-35.478
20
197.131
10
-35.824
20
196.737
10
-36.519
20
195.935
10
-37.494
20
194.714
10
-37.819
20
194.289
10
-38.155
20
193.850
10
-38.745
20
193.074
10
-39.634
20
191.793
10
-39.930
20
191.348
10
-40.505
20
190.480
10
-41.310
20
189.201
10
-41.566
20
188.755
10
-41.843
20
188.272
10
-42.360
20
187.368
10
-43.078
20
186.038
10
-43.549
20
185.076
10
-43.792
20
184.578
10
-44.223
20
183.692
10
-44.630
20
182.777
10
-45.038
20
181.776
10
-45.248
20
181.262
10
-45.535
20
180.560
10
-45.672
20
179.478
10
-45.668
20
178.609
10
-45.663
20
177.610
10
-45.657
20
176.610
10
-45.652
20
175.609
10
-45.647
20
174.610
10
-45.641
20
173.610
10
-45.636
20
172.609
10
-45.631
20
171.610
10
-45.625
20
170.610
10
-45.620
20
169.609
10
-45.615
20
168.610
10
-45.609
20
167.610
10
-45.604
20
166.610
10
-45.598
20
165.609
10
-45.596
20
165.109
10
-45.590
20
164.110
10
-45.585
20
163.109
10
-45.580
20
162.110
10
-45.574
20
161.109
10
-45.572
20
160.609
0
CIRCLE
8
OUTLINE
10
5.600
20
160.900
40
19.000
0
TEXT
8
OUTLINE
10
-0.400
20
159.900
40
2.50
1
AXLE
0
LWPOLYLINE
8
TALL_PARTS
90
4
70
1
10
40.305
20
122.955
10
50.895
20
122.955
10
50.895
20
131.845
10
40.305
20
131.845
0
TEXT
8
TALL_PARTS
10
40.305
20
120.755
40
1.60
1
C1 h10.5
0
LWPOLYLINE
8
TALL_PARTS
90
4
70
1
10
-31.695
20
131.455
10
-21.105
20
131.455
10
-21.105
20
140.345
10
-31.695
20
140.345
0
TEXT
8
TALL_PARTS
10
-31.695
20
129.255
40
1.60
1
C2 h10.5
0
LWPOLYLINE
8
TALL_PARTS
90
4
70
1
10
-26.695
20
181.205
10
-14.105
20
181.205
10
-14.105
20
192.095
10
-26.695
20
192.095
0
TEXT
8
TALL_PARTS
10
-26.695
20
179.005
40
1.60
1
C3 h10.5
0
LWPOLYLINE
8
TALL_PARTS
90
4
70
1
10
52.805
20
122.955
10
63.395
20
122.955
10
63.395
20
131.845
10
52.805
20
131.845
0
TEXT
8
TALL_PARTS
10
52.805
20
120.755
40
1.60
1
C4 h10.5
0
LWPOLYLINE
8
TALL_PARTS
90
4
70
1
10
-26.695
20
193.705
10
-14.105
20
193.705
10
-14.105
20
204.595
10
-26.695
20
204.595
0
TEXT
8
TALL_PARTS
10
-26.695
20
191.505
40
1.60
1
C7 h10.5
0
CIRCLE
8
HOLES_M3
10
-36.400
20
184.900
40
1.600
0
CIRCLE
8
BOSSES
10
-36.400
20
184.900
40
3.000
0
TEXT
8
HOLES_M3
10
-32.900
20
183.900
40
2.00
1
H1
0
CIRCLE
8
HOLES_M3
10
-36.400
20
136.900
40
1.600
0
CIRCLE
8
BOSSES
10
-36.400
20
136.900
40
3.000
0
TEXT
8
HOLES_M3
10
-32.900
20
135.900
40
2.00
1
H2
0
CIRCLE
8
HOLES_M3
10
32.600
20
197.900
40
1.600
0
CIRCLE
8
BOSSES
10
32.600
20
197.900
40
3.000
0
TEXT
8
HOLES_M3
10
36.100
20
196.900
40
2.00
1
H3
0
CIRCLE
8
HOLES_M3
10
32.600
20
123.900
40
1.600
0
CIRCLE
8
BOSSES
10
32.600
20
123.900
40
3.000
0
TEXT
8
HOLES_M3
10
36.100
20
122.900
40
2.00
1
H4
0
CIRCLE
8
HOLES_M3
10
75.600
20
160.900
40
1.600
0
CIRCLE
8
BOSSES
10
75.600
20
160.900
40
3.000
0
TEXT
8
HOLES_M3
10
79.100
20
159.900
40
2.00
1
H5
0
LWPOLYLINE
8
TALL_PARTS
90
4
70
1
10
-21.045
20
116.505
10
-4.455
20
116.505
10
-4.455
20
125.795
10
-21.045
20
125.795
0
TEXT
8
TALL_PARTS
10
-21.045
20
114.305
40
1.60
1
J1 h15.5
0
LWPOLYLINE
8
CONNECTORS
90
4
70
1
10
-21.045
20
116.505
10
-4.455
20
116.505
10
-4.455
20
125.795
10
-21.045
20
125.795
0
TEXT
8
CONNECTORS
10
-21.045
20
126.395
40
1.60
1
J1 XT60 battery
0
LWPOLYLINE
8
TALL_PARTS
90
4
70
1
10
81.605
20
172.455
10
92.595
20
172.455
10
92.595
20
179.295
10
81.605
20
179.295
0
TEXT
8
TALL_PARTS
10
81.605
20
170.255
40
1.60
1
J10 h10
0
LWPOLYLINE
8
CONNECTORS
90
4
70
1
10
81.605
20
172.455
10
92.595
20
172.455
10
92.595
20
179.295
10
81.605
20
179.295
0
TEXT
8
CONNECTORS
10
81.605
20
179.895
40
1.60
1
J10 NeoPixel
0
LWPOLYLINE
8
TALL_PARTS
90
4
70
1
10
91.145
20
142.955
10
99.635
20
142.955
10
99.635
20
149.795
10
91.145
20
149.795
0
TEXT
8
TALL_PARTS
10
91.145
20
140.755
40
1.60
1
J11 h10
0
LWPOLYLINE
8
CONNECTORS
90
4
70
1
10
91.145
20
142.955
10
99.635
20
142.955
10
99.635
20
149.795
10
91.145
20
149.795
0
TEXT
8
CONNECTORS
10
91.145
20
150.395
40
1.60
1
J11 slip ring 5V
0
LWPOLYLINE
8
TALL_PARTS
90
4
70
1
10
7.848
20
196.605
10
16.797
20
196.605
10
16.797
20
206.195
10
7.848
20
206.195
0
TEXT
8
TALL_PARTS
10
7.848
20
194.405
40
1.60
1
J13 h11
0
LWPOLYLINE
8
CONNECTORS
90
4
70
1
10
7.848
20
196.605
10
16.797
20
196.605
10
16.797
20
206.195
10
7.848
20
206.195
0
TEXT
8
CONNECTORS
10
7.848
20
206.795
40
1.60
1
J13 spk L
0
LWPOLYLINE
8
TALL_PARTS
90
4
70
1
10
17.348
20
196.605
10
26.297
20
196.605
10
26.297
20
206.195
10
17.348
20
206.195
0
TEXT
8
TALL_PARTS
10
17.348
20
194.405
40
1.60
1
J14 h11
0
LWPOLYLINE
8
CONNECTORS
90
4
70
1
10
17.348
20
196.605
10
26.297
20
196.605
10
26.297
20
206.195
10
17.348
20
206.195
0
TEXT
8
CONNECTORS
10
17.348
20
206.795
40
1.60
1
J14 spk R
0
LWPOLYLINE
8
TALL_PARTS
90
4
70
1
10
81.355
20
180.980
10
89.845
20
180.980
10
89.845
20
187.820
10
81.355
20
187.820
0
TEXT
8
TALL_PARTS
10
81.355
20
178.780
40
1.60
1
J15 h10
0
LWPOLYLINE
8
CONNECTORS
90
4
70
1
10
81.355
20
180.980
10
89.845
20
180.980
10
89.845
20
187.820
10
81.355
20
187.820
0
TEXT
8
CONNECTORS
10
81.355
20
188.420
40
1.60
1
J15 E-stop
0
LWPOLYLINE
8
CONNECTORS
90
4
70
1
10
59.205
20
187.200
10
67.095
20
187.200
10
67.095
20
193.850
10
59.205
20
193.850
0
TEXT
8
CONNECTORS
10
59.205
20
194.450
40
1.60
1
J17 I2C
0
LWPOLYLINE
8
TALL_PARTS
90
4
70
1
10
-0.545
20
125.835
10
13.245
20
125.835
10
13.245
20
132.015
10
-0.545
20
132.015
0
TEXT
8
TALL_PARTS
10
-0.545
20
123.635
40
1.60
1
J2 h14
0
LWPOLYLINE
8
CONNECTORS
90
4
70
1
10
-0.545
20
125.835
10
13.245
20
125.835
10
13.245
20
132.015
10
-0.545
20
132.015
0
TEXT
8
CONNECTORS
10
-0.545
20
132.615
40
1.60
1
J2 motor A ribbon
0
LWPOLYLINE
8
TALL_PARTS
90
4
70
1
10
-0.625
20
134.085
10
13.165
20
134.085
10
13.165
20
140.265
10
-0.625
20
140.265
0
TEXT
8
TALL_PARTS
10
-0.625
20
131.885
40
1.60
1
J3 h14
0
LWPOLYLINE
8
CONNECTORS
90
4
70
1
10
-0.625
20
134.085
10
13.165
20
134.085
10
13.165
20
140.265
10
-0.625
20
140.265
0
TEXT
8
CONNECTORS
10
-0.625
20
140.865
40
1.60
1
J3 motor B ribbon
0
LWPOLYLINE
8
TALL_PARTS
90
4
70
1
10
59.785
20
159.545
10
63.415
20
159.545
10
63.415
20
168.255
10
59.785
20
168.255
0
TEXT
8
TALL_PARTS
10
59.785
20
157.345
40
1.60
1
J4 h11
0
LWPOLYLINE
8
CONNECTORS
90
4
70
1
10
59.785
20
159.545
10
63.415
20
159.545
10
63.415
20
168.255
10
59.785
20
168.255
0
TEXT
8
CONNECTORS
10
59.785
20
168.855
40
1.60
1
J4 servo L
0
LWPOLYLINE
8
TALL_PARTS
90
4
70
1
10
65.285
20
159.545
10
68.915
20
159.545
10
68.915
20
168.255
10
65.285
20
168.255
0
TEXT
8
TALL_PARTS
10
65.285
20
157.345
40
1.60
1
J5 h11
0
LWPOLYLINE
8
CONNECTORS
90
4
70
1
10
65.285
20
159.545
10
68.915
20
159.545
10
68.915
20
168.255
10
65.285
20
168.255
0
TEXT
8
CONNECTORS
10
65.285
20
168.855
40
1.60
1
J5 servo R
0
LWPOLYLINE
8
TALL_PARTS
90
4
70
1
10
59.355
20
177.980
10
72.845
20
177.980
10
72.845
20
184.820
10
59.355
20
184.820
0
TEXT
8
TALL_PARTS
10
59.355
20
175.780
40
1.60
1
J6 h10
0
LWPOLYLINE
8
CONNECTORS
90
4
70
1
10
59.355
20
177.980
10
72.845
20
177.980
10
72.845
20
184.820
10
59.355
20
184.820
0
TEXT
8
CONNECTORS
10
59.355
20
185.420
40
1.60
1
J6 IMU
0
LWPOLYLINE
8
TALL_PARTS
90
4
70
1
10
81.605
20
155.455
10
97.595
20
155.455
10
97.595
20
162.295
10
81.605
20
162.295
0
TEXT
8
TALL_PARTS
10
81.605
20
153.255
40
1.60
1
J7 h10
0
LWPOLYLINE
8
CONNECTORS
90
4
70
1
10
81.605
20
155.455
10
97.595
20
155.455
10
97.595
20
162.295
10
81.605
20
162.295
0
TEXT
8
CONNECTORS
10
81.605
20
162.895
40
1.60
1
J7 S2S
0
LWPOLYLINE
8
TALL_PARTS
90
4
70
1
10
81.605
20
163.955
10
95.095
20
163.955
10
95.095
20
170.795
10
81.605
20
170.795
0
TEXT
8
TALL_PARTS
10
81.605
20
161.755
40
1.60
1
J8 h10
0
LWPOLYLINE
8
CONNECTORS
90
4
70
1
10
81.605
20
163.955
10
95.095
20
163.955
10
95.095
20
170.795
10
81.605
20
170.795
0
TEXT
8
CONNECTORS
10
81.605
20
171.395
40
1.60
1
J8 encoder
0
LWPOLYLINE
8
TALL_PARTS
90
4
70
1
10
59.605
20
169.480
10
70.595
20
169.480
10
70.595
20
176.320
10
59.605
20
176.320
0
TEXT
8
TALL_PARTS
10
59.605
20
167.280
40
1.60
1
J9 h10
0
LWPOLYLINE
8
CONNECTORS
90
4
70
1
10
59.605
20
169.480
10
70.595
20
169.480
10
70.595
20
176.320
10
59.605
20
176.320
0
TEXT
8
CONNECTORS
10
59.605
20
176.920
40
1.60
1
J9 hall
0
LWPOLYLINE
8
TALL_PARTS
90
4
70
1
10
4.825
20
188.075
10
23.715
20
188.075
10
23.715
20
194.255
10
4.825
20
194.255
0
TEXT
8
TALL_PARTS
10
4.825
20
185.875
40
1.60
1
J_AMP h14
0
LWPOLYLINE
8
CONNECTORS
90
4
70
1
10
4.825
20
188.075
10
23.715
20
188.075
10
23.715
20
194.255
10
4.825
20
194.255
0
TEXT
8
CONNECTORS
10
4.825
20
194.855
40
1.60
1
J_AMP amp module
0
LWPOLYLINE
8
VENT_ZONES
90
4
70
1
10
5.270
20
184.165
10
23.270
20
184.165
10
23.270
20
198.165
10
5.270
20
198.165
0
TEXT
8
VENT_ZONES
10
5.270
20
198.765
40
1.60
1
vent: MAX9744 amp module 2-4 W
0
LWPOLYLINE
8
TALL_PARTS
90
4
70
1
10
28.085
20
141.305
10
31.715
20
141.305
10
31.715
20
180.495
10
28.085
20
180.495
0
TEXT
8
TALL_PARTS
10
28.085
20
139.105
40
1.60
1
J_U1A h13.6
0
LWPOLYLINE
8
TALL_PARTS
90
4
70
1
10
53.485
20
141.305
10
57.115
20
141.305
10
57.115
20
180.495
10
53.485
20
180.495
0
TEXT
8
TALL_PARTS
10
53.485
20
139.105
40
1.60
1
J_U1B h13.6
0
LWPOLYLINE
8
TALL_PARTS
90
4
70
1
10
-13.410
20
183.620
10
-10.630
20
183.620
10
-10.630
20
206.720
10
-13.410
20
206.720
0
TEXT
8
TALL_PARTS
10
-13.410
20
181.420
40
1.60
1
J_U2A h13.3
0
LWPOLYLINE
8
TALL_PARTS
90
4
70
1
10
1.830
20
183.620
10
4.610
20
183.620
10
4.610
20
206.720
10
1.830
20
206.720
0
TEXT
8
TALL_PARTS
10
1.830
20
181.420
40
1.60
1
J_U2B h13.3
0
LWPOLYLINE
8
TALL_PARTS
90
4
70
1
10
-10.870
20
182.350
10
2.070
20
182.350
10
2.070
20
185.130
10
-10.870
20
185.130
0
TEXT
8
TALL_PARTS
10
-10.870
20
180.150
40
1.60
1
J_U2C h13.3
0
LWPOLYLINE
8
TALL_PARTS
90
4
70
1
10
-38.165
20
161.635
10
-17.135
20
161.635
10
-17.135
20
180.165
10
-38.165
20
180.165
0
TEXT
8
TALL_PARTS
10
-38.165
20
159.435
40
1.60
1
PS1 h9
0
LWPOLYLINE
8
VENT_ZONES
90
4
70
1
10
-36.650
20
163.900
10
-18.650
20
163.900
10
-18.650
20
177.900
10
-36.650
20
177.900
0
TEXT
8
VENT_ZONES
10
-36.650
20
178.500
40
1.60
1
vent: 5 V buck ~2.5 W
0
LWPOLYLINE
8
TALL_PARTS
90
4
70
1
10
-38.165
20
142.385
10
-19.635
20
142.385
10
-19.635
20
160.915
10
-38.165
20
160.915
0
TEXT
8
TALL_PARTS
10
-38.165
20
140.185
40
1.60
1
PS2 h9
0
LWPOLYLINE
8
VENT_ZONES
90
4
70
1
10
-37.900
20
144.650
10
-19.900
20
144.650
10
-19.900
20
158.650
10
-37.900
20
158.650
0
TEXT
8
VENT_ZONES
10
-37.900
20
159.250
40
1.60
1
vent: 6 V buck ~1 W
0
LWPOLYLINE
8
VENT_ZONES
90
4
70
1
10
8.805
20
108.305
10
26.805
20
108.305
10
26.805
20
122.305
10
8.805
20
122.305
0
TEXT
8
VENT_ZONES
10
8.805
20
122.905
40
1.60
1
vent: RPP FET ~0.5-1.5 W
0
LWPOLYLINE
8
TALL_PARTS
90
4
70
1
10
64.735
20
127.535
10
86.465
20
127.535
10
86.465
20
149.265
10
64.735
20
149.265
0
TEXT
8
TALL_PARTS
10
64.735
20
125.335
40
1.60
1
U3 h12.5
0
LWPOLYLINE
8
CONNECTORS
90
4
70
1
10
64.735
20
127.535
10
86.465
20
127.535
10
86.465
20
149.265
10
64.735
20
149.265
0
TEXT
8
CONNECTORS
10
64.735
20
149.865
40
1.60
1
U3 DFPlayer / SD
0
LWPOLYLINE
8
VENT_ZONES
90
4
70
1
10
63.350
20
183.150
10
81.350
20
183.150
10
81.350
20
197.150
10
63.350
20
197.150
0
TEXT
8
VENT_ZONES
10
63.350
20
197.750
40
1.60
1
vent: 3.3 V LDO ~0.5 W
0
ENDSEC
0
EOF
