0
SECTION
2
ENTITIES
0
LWPOLYLINE
8
OUTLINE
90
340
70
1
10
-51.172
20
-0.291
10
-51.166
20
-1.290
10
-51.161
20
-2.290
10
-51.158
20
-2.790
10
-51.153
20
-3.791
10
-51.148
20
-4.790
10
-51.142
20
-5.790
10
-51.137
20
-6.791
10
-51.132
20
-7.790
10
-51.126
20
-8.791
10
-51.121
20
-9.792
10
-51.116
20
-10.791
10
-51.113
20
-11.291
10
-51.108
20
-12.291
10
-51.102
20
-13.291
10
-51.097
20
-14.292
10
-51.092
20
-15.291
10
-51.086
20
-16.291
10
-51.081
20
-17.291
10
-51.075
20
-18.291
10
-51.068
20
-19.570
10
-50.907
20
-20.272
10
-50.479
20
-21.289
10
-50.248
20
-21.840
10
-50.031
20
-22.358
10
-49.507
20
-23.500
10
-48.948
20
-24.622
10
-48.698
20
-25.120
10
-48.218
20
-26.075
10
-47.529
20
-27.277
10
-47.250
20
-27.750
10
-46.693
20
-28.693
10
-46.034
20
-29.742
10
-45.657
20
-30.315
10
-45.350
20
-30.763
10
-44.729
20
-31.671
10
-44.007
20
-32.670
10
-43.249
20
-33.657
10
-42.908
20
-34.089
10
-42.574
20
-34.514
10
-41.788
20
-35.467
10
-40.970
20
-36.402
10
-40.604
20
-36.806
10
-39.872
20
-37.615
10
-39.405
20
-38.098
10
-38.116
20
-39.378
10
-37.733
20
-39.748
10
-36.815
20
-40.608
10
-36.316
20
-41.063
10
-35.488
20
-41.763
10
-35.067
20
-42.118
10
-34.106
20
-42.909
10
-33.132
20
-43.663
10
-32.246
20
-44.313
10
-31.806
20
-44.636
10
-31.237
20
-45.040
10
-30.224
20
-45.726
10
-29.341
20
-46.287
10
-28.895
20
-46.571
10
-27.802
20
-47.252
10
-26.671
20
-47.876
10
-26.203
20
-48.131
10
-25.285
20
-48.632
10
-24.256
20
-49.157
10
-23.196
20
-49.658
10
-22.717
20
-49.879
10
-22.252
20
-50.093
10
-20.971
20
-50.644
10
-19.802
20
-51.105
10
-19.288
20
-51.302
10
-18.279
20
-51.687
10
-17.633
20
-51.902
10
-16.424
20
-52.292
10
-15.899
20
-52.452
10
-14.860
20
-52.771
10
-14.205
20
-52.944
10
-12.429
20
-53.381
10
-11.911
20
-53.502
10
-10.677
20
-53.767
10
-10.005
20
-53.901
10
-8.929
20
-54.077
10
-8.390
20
-54.166
10
-7.153
20
-54.348
10
-5.917
20
-54.494
10
-5.380
20
-54.545
10
-4.285
20
-54.651
10
-3.597
20
-54.699
10
-2.344
20
-54.764
10
-1.806
20
-54.780
10
-0.703
20
-54.811
10
0.698
20
-54.823
10
1.774
20
-54.781
10
2.335
20
-54.759
10
2.881
20
-54.737
10
4.280
20
-54.661
10
5.346
20
-54.546
10
5.899
20
-54.488
10
7.151
20
-54.346
10
8.374
20
-54.172
10
9.450
20
-53.983
10
9.996
20
-53.887
10
10.687
20
-53.761
10
11.895
20
-53.508
10
12.953
20
-53.249
10
13.497
20
-53.115
10
14.888
20
-52.770
10
15.352
20
-52.639
10
16.337
20
-52.362
10
17.323
20
-52.084
10
18.309
20
-51.807
10
19.294
20
-51.529
10
20.280
20
-51.252
10
21.266
20
-50.974
10
22.252
20
-50.697
10
23.237
20
-50.419
10
24.223
20
-50.142
10
25.208
20
-49.864
10
26.194
20
-49.586
10
27.180
20
-49.309
10
28.166
20
-49.031
10
29.151
20
-48.754
10
30.137
20
-48.476
10
31.124
20
-48.199
10
32.099
20
-47.924
10
33.069
20
-47.650
10
34.040
20
-47.377
10
35.494
20
-46.968
10
36.464
20
-46.695
10
37.434
20
-46.422
10
38.403
20
-46.149
10
39.858
20
-45.739
10
40.828
20
-45.466
10
42.282
20
-45.057
10
43.252
20
-44.784
10
44.706
20
-44.374
10
45.676
20
-44.101
10
47.131
20
-43.692
10
48.100
20
-43.419
10
49.554
20
-43.009
10
51.009
20
-42.599
10
52.464
20
-42.190
10
53.918
20
-41.780
10
55.373
20
-41.371
10
56.827
20
-40.961
10
58.282
20
-40.552
10
59.736
20
-40.142
10
61.676
20
-39.596
10
63.130
20
-39.187
10
65.070
20
-38.641
10
66.524
20
-38.231
10
68.463
20
-37.685
10
70.486
20
-37.115
10
72.065
20
-36.671
10
74.141
20
-36.086
10
76.625
20
-35.387
10
78.612
20
-34.827
10
81.076
20
-34.133
10
83.075
20
-33.526
10
85.127
20
-32.813
10
87.608
20
-31.735
10
89.515
20
-30.756
10
90.838
20
-29.937
10
92.652
20
-28.714
10
94.372
20
-27.397
10
95.994
20
-25.990
10
97.085
20
-24.880
10
98.569
20
-23.247
10
99.602
20
-22.013
10
100.481
20
-20.773
10
99.624
20
18.984
10
98.962
20
19.835
10
97.832
20
21.128
10
96.193
20
22.807
10
95.056
20
23.852
10
93.437
20
25.176
10
91.750
20
26.380
10
89.991
20
27.491
10
88.187
20
28.493
10
85.824
20
29.579
10
83.846
20
30.309
10
81.702
20
31.028
10
79.111
20
31.872
10
77.063
20
32.538
10
75.111
20
33.174
10
73.159
20
33.809
10
71.208
20
34.445
10
69.256
20
35.080
10
67.304
20
35.716
10
65.840
20
36.192
10
63.889
20
36.828
10
62.425
20
37.304
10
60.960
20
37.781
10
59.515
20
38.252
10
58.078
20
38.719
10
56.163
20
39.343
10
55.205
20
39.655
10
53.768
20
40.123
10
52.331
20
40.591
10
50.894
20
41.058
10
49.457
20
41.526
10
48.498
20
41.838
10
47.062
20
42.306
10
46.105
20
42.618
10
44.669
20
43.086
10
43.711
20
43.397
10
42.273
20
43.865
10
41.315
20
44.177
10
39.878
20
44.645
10
38.919
20
44.957
10
37.962
20
45.269
10
37.005
20
45.581
10
35.568
20
46.048
10
34.610
20
46.360
10
33.652
20
46.672
10
32.694
20
46.984
10
31.736
20
47.296
10
30.778
20
47.608
10
29.820
20
47.920
10
28.863
20
48.231
10
27.905
20
48.543
10
26.468
20
49.011
10
25.510
20
49.323
10
24.552
20
49.635
10
23.594
20
49.947
10
23.115
20
50.103
10
22.075
20
50.441
10
21.035
20
50.780
10
19.995
20
51.118
10
18.954
20
51.457
10
17.964
20
51.780
10
17.002
20
52.093
10
16.313
20
52.293
10
15.596
20
52.502
10
15.062
20
52.655
10
14.028
20
52.955
10
12.825
20
53.256
10
11.579
20
53.531
10
11.038
20
53.649
10
10.011
20
53.873
10
8.595
20
54.094
10
8.052
20
54.175
10
7.525
20
54.253
10
5.735
20
54.478
10
5.032
20
54.542
10
4.486
20
54.587
10
3.409
20
54.675
10
2.161
20
54.737
10
1.445
20
54.756
10
0.901
20
54.765
10
-0.180
20
54.781
10
-1.427
20
54.763
10
-2.694
20
54.707
10
-3.242
20
54.679
10
-4.303
20
54.624
10
-4.991
20
54.554
10
-6.274
20
54.414
10
-6.817
20
54.350
10
-7.873
20
54.225
10
-9.286
20
53.988
10
-9.814
20
53.889
10
-10.882
20
53.690
10
-12.114
20
53.426
10
-12.805
20
53.264
10
-13.860
20
52.994
10
-14.375
20
52.861
10
-15.581
20
52.520
10
-16.787
20
52.142
10
-17.302
20
51.972
10
-18.320
20
51.638
10
-18.973
20
51.393
10
-20.167
20
50.931
10
-20.669
20
50.728
10
-21.665
20
50.325
10
-22.298
20
50.041
10
-23.958
20
49.260
10
-24.430
20
49.032
10
-25.561
20
48.456
10
-26.182
20
48.128
10
-27.121
20
47.592
10
-27.588
20
47.326
10
-28.670
20
46.683
10
-29.733
20
46.010
10
-30.181
20
45.714
10
-31.082
20
45.119
10
-31.467
20
44.847
10
-32.700
20
43.953
10
-33.096
20
43.651
10
-34.494
20
42.563
10
-35.022
20
42.140
10
-35.793
20
41.468
10
-36.186
20
41.126
10
-37.100
20
40.311
10
-37.980
20
39.483
10
-38.712
20
38.753
10
-39.082
20
38.385
10
-39.571
20
37.887
10
-40.397
20
37.007
10
-41.078
20
36.231
10
-41.424
20
35.837
10
-42.119
20
35.035
10
-43.094
20
33.814
10
-43.419
20
33.389
10
-43.755
20
32.950
10
-44.345
20
32.174
10
-45.234
20
30.893
10
-45.530
20
30.448
10
-46.105
20
29.580
10
-46.910
20
28.301
10
-47.166
20
27.855
10
-47.443
20
27.372
10
-47.960
20
26.468
10
-48.678
20
25.138
10
-49.149
20
24.176
10
-49.392
20
23.678
10
-49.823
20
22.792
10
-50.230
20
21.877
10
-50.638
20
20.876
10
-50.848
20
20.362
10
-51.135
20
19.660
10
-51.272
20
18.578
10
-51.268
20
17.709
10
-51.263
20
16.710
10
-51.257
20
15.710
10
-51.252
20
14.709
10
-51.247
20
13.710
10
-51.241
20
12.710
10
-51.236
20
11.709
10
-51.231
20
10.710
10
-51.225
20
9.710
10
-51.220
20
8.709
10
-51.215
20
7.710
10
-51.209
20
6.710
10
-51.204
20
5.710
10
-51.198
20
4.709
10
-51.196
20
4.209
10
-51.190
20
3.210
10
-51.185
20
2.209
10
-51.180
20
1.210
10
-51.174
20
0.209
10
-51.172
20
-0.291
0
CIRCLE
8
OUTLINE
10
0.000
20
0.000
40
19.000
0
TEXT
8
OUTLINE
10
-6.000
20
-1.000
40
2.50
1
AXLE
0
LWPOLYLINE
8
TALL_PARTS
90
4
70
1
10
34.705
20
-37.945
10
45.295
20
-37.945
10
45.295
20
-29.055
10
34.705
20
-29.055
0
TEXT
8
TALL_PARTS
10
34.705
20
-40.145
40
1.60
1
C1 h10.5
0
LWPOLYLINE
8
TALL_PARTS
90
4
70
1
10
-37.295
20
-29.445
10
-26.705
20
-29.445
10
-26.705
20
-20.555
10
-37.295
20
-20.555
0
TEXT
8
TALL_PARTS
10
-37.295
20
-31.645
40
1.60
1
C2 h10.5
0
LWPOLYLINE
8
TALL_PARTS
90
4
70
1
10
-32.295
20
20.305
10
-19.705
20
20.305
10
-19.705
20
31.195
10
-32.295
20
31.195
0
TEXT
8
TALL_PARTS
10
-32.295
20
18.105
40
1.60
1
C3 h10.5
0
LWPOLYLINE
8
TALL_PARTS
90
4
70
1
10
47.205
20
-37.945
10
57.795
20
-37.945
10
57.795
20
-29.055
10
47.205
20
-29.055
0
TEXT
8
TALL_PARTS
10
47.205
20
-40.145
40
1.60
1
C4 h10.5
0
LWPOLYLINE
8
TALL_PARTS
90
4
70
1
10
-32.295
20
32.805
10
-19.705
20
32.805
10
-19.705
20
43.695
10
-32.295
20
43.695
0
TEXT
8
TALL_PARTS
10
-32.295
20
30.605
40
1.60
1
C7 h10.5
0
CIRCLE
8
HOLES_M3
10
-42.000
20
24.000
40
1.600
0
CIRCLE
8
BOSSES
10
-42.000
20
24.000
40
3.000
0
TEXT
8
HOLES_M3
10
-38.500
20
23.000
40
2.00
1
H1
0
CIRCLE
8
HOLES_M3
10
-42.000
20
-24.000
40
1.600
0
CIRCLE
8
BOSSES
10
-42.000
20
-24.000
40
3.000
0
TEXT
8
HOLES_M3
10
-38.500
20
-25.000
40
2.00
1
H2
0
CIRCLE
8
HOLES_M3
10
27.000
20
37.000
40
1.600
0
CIRCLE
8
BOSSES
10
27.000
20
37.000
40
3.000
0
TEXT
8
HOLES_M3
10
30.500
20
36.000
40
2.00
1
H3
0
CIRCLE
8
HOLES_M3
10
27.000
20
-37.000
40
1.600
0
CIRCLE
8
BOSSES
10
27.000
20
-37.000
40
3.000
0
TEXT
8
HOLES_M3
10
30.500
20
-38.000
40
2.00
1
H4
0
CIRCLE
8
HOLES_M3
10
70.000
20
0.000
40
1.600
0
CIRCLE
8
BOSSES
10
70.000
20
0.000
40
3.000
0
TEXT
8
HOLES_M3
10
73.500
20
-1.000
40
2.00
1
H5
0
LWPOLYLINE
8
TALL_PARTS
90
4
70
1
10
-26.645
20
-44.395
10
-10.055
20
-44.395
10
-10.055
20
-35.105
10
-26.645
20
-35.105
0
TEXT
8
TALL_PARTS
10
-26.645
20
-46.595
40
1.60
1
J1 h15.5
0
LWPOLYLINE
8
CONNECTORS
90
4
70
1
10
-26.645
20
-44.395
10
-10.055
20
-44.395
10
-10.055
20
-35.105
10
-26.645
20
-35.105
0
TEXT
8
CONNECTORS
10
-26.645
20
-34.505
40
1.60
1
J1 XT60 battery
0
LWPOLYLINE
8
TALL_PARTS
90
4
70
1
10
76.005
20
11.555
10
86.995
20
11.555
10
86.995
20
18.395
10
76.005
20
18.395
0
TEXT
8
TALL_PARTS
10
76.005
20
9.355
40
1.60
1
J10 h10
0
LWPOLYLINE
8
CONNECTORS
90
4
70
1
10
76.005
20
11.555
10
86.995
20
11.555
10
86.995
20
18.395
10
76.005
20
18.395
0
TEXT
8
CONNECTORS
10
76.005
20
18.995
40
1.60
1
J10 NeoPixel
0
LWPOLYLINE
8
TALL_PARTS
90
4
70
1
10
85.545
20
-17.945
10
94.035
20
-17.945
10
94.035
20
-11.105
10
85.545
20
-11.105
0
TEXT
8
TALL_PARTS
10
85.545
20
-20.145
40
1.60
1
J11 h10
0
LWPOLYLINE
8
CONNECTORS
90
4
70
1
10
85.545
20
-17.945
10
94.035
20
-17.945
10
94.035
20
-11.105
10
85.545
20
-11.105
0
TEXT
8
CONNECTORS
10
85.545
20
-10.505
40
1.60
1
J11 slip ring 5V
0
LWPOLYLINE
8
TALL_PARTS
90
4
70
1
10
2.248
20
35.705
10
11.197
20
35.705
10
11.197
20
45.295
10
2.248
20
45.295
0
TEXT
8
TALL_PARTS
10
2.248
20
33.505
40
1.60
1
J13 h11
0
LWPOLYLINE
8
CONNECTORS
90
4
70
1
10
2.248
20
35.705
10
11.197
20
35.705
10
11.197
20
45.295
10
2.248
20
45.295
0
TEXT
8
CONNECTORS
10
2.248
20
45.895
40
1.60
1
J13 spk L
0
LWPOLYLINE
8
TALL_PARTS
90
4
70
1
10
11.748
20
35.705
10
20.697
20
35.705
10
20.697
20
45.295
10
11.748
20
45.295
0
TEXT
8
TALL_PARTS
10
11.748
20
33.505
40
1.60
1
J14 h11
0
LWPOLYLINE
8
CONNECTORS
90
4
70
1
10
11.748
20
35.705
10
20.697
20
35.705
10
20.697
20
45.295
10
11.748
20
45.295
0
TEXT
8
CONNECTORS
10
11.748
20
45.895
40
1.60
1
J14 spk R
0
LWPOLYLINE
8
TALL_PARTS
90
4
70
1
10
75.755
20
20.080
10
84.245
20
20.080
10
84.245
20
26.920
10
75.755
20
26.920
0
TEXT
8
TALL_PARTS
10
75.755
20
17.880
40
1.60
1
J15 h10
0
LWPOLYLINE
8
CONNECTORS
90
4
70
1
10
75.755
20
20.080
10
84.245
20
20.080
10
84.245
20
26.920
10
75.755
20
26.920
0
TEXT
8
CONNECTORS
10
75.755
20
27.520
40
1.60
1
J15 E-stop
0
LWPOLYLINE
8
CONNECTORS
90
4
70
1
10
53.605
20
26.300
10
61.495
20
26.300
10
61.495
20
32.950
10
53.605
20
32.950
0
TEXT
8
CONNECTORS
10
53.605
20
33.550
40
1.60
1
J17 I2C
0
LWPOLYLINE
8
TALL_PARTS
90
4
70
1
10
-6.145
20
-35.065
10
7.645
20
-35.065
10
7.645
20
-28.885
10
-6.145
20
-28.885
0
TEXT
8
TALL_PARTS
10
-6.145
20
-37.265
40
1.60
1
J2 h14
0
LWPOLYLINE
8
CONNECTORS
90
4
70
1
10
-6.145
20
-35.065
10
7.645
20
-35.065
10
7.645
20
-28.885
10
-6.145
20
-28.885
0
TEXT
8
CONNECTORS
10
-6.145
20
-28.285
40
1.60
1
J2 motor A ribbon
0
LWPOLYLINE
8
TALL_PARTS
90
4
70
1
10
-6.225
20
-26.815
10
7.565
20
-26.815
10
7.565
20
-20.635
10
-6.225
20
-20.635
0
TEXT
8
TALL_PARTS
10
-6.225
20
-29.015
40
1.60
1
J3 h14
0
LWPOLYLINE
8
CONNECTORS
90
4
70
1
10
-6.225
20
-26.815
10
7.565
20
-26.815
10
7.565
20
-20.635
10
-6.225
20
-20.635
0
TEXT
8
CONNECTORS
10
-6.225
20
-20.035
40
1.60
1
J3 motor B ribbon
0
LWPOLYLINE
8
TALL_PARTS
90
4
70
1
10
54.185
20
-1.355
10
57.815
20
-1.355
10
57.815
20
7.355
10
54.185
20
7.355
0
TEXT
8
TALL_PARTS
10
54.185
20
-3.555
40
1.60
1
J4 h11
0
LWPOLYLINE
8
CONNECTORS
90
4
70
1
10
54.185
20
-1.355
10
57.815
20
-1.355
10
57.815
20
7.355
10
54.185
20
7.355
0
TEXT
8
CONNECTORS
10
54.185
20
7.955
40
1.60
1
J4 servo L
0
LWPOLYLINE
8
TALL_PARTS
90
4
70
1
10
59.685
20
-1.355
10
63.315
20
-1.355
10
63.315
20
7.355
10
59.685
20
7.355
0
TEXT
8
TALL_PARTS
10
59.685
20
-3.555
40
1.60
1
J5 h11
0
LWPOLYLINE
8
CONNECTORS
90
4
70
1
10
59.685
20
-1.355
10
63.315
20
-1.355
10
63.315
20
7.355
10
59.685
20
7.355
0
TEXT
8
CONNECTORS
10
59.685
20
7.955
40
1.60
1
J5 servo R
0
LWPOLYLINE
8
TALL_PARTS
90
4
70
1
10
53.755
20
17.080
10
67.245
20
17.080
10
67.245
20
23.920
10
53.755
20
23.920
0
TEXT
8
TALL_PARTS
10
53.755
20
14.880
40
1.60
1
J6 h10
0
LWPOLYLINE
8
CONNECTORS
90
4
70
1
10
53.755
20
17.080
10
67.245
20
17.080
10
67.245
20
23.920
10
53.755
20
23.920
0
TEXT
8
CONNECTORS
10
53.755
20
24.520
40
1.60
1
J6 IMU
0
LWPOLYLINE
8
TALL_PARTS
90
4
70
1
10
76.005
20
-5.445
10
91.995
20
-5.445
10
91.995
20
1.395
10
76.005
20
1.395
0
TEXT
8
TALL_PARTS
10
76.005
20
-7.645
40
1.60
1
J7 h10
0
LWPOLYLINE
8
CONNECTORS
90
4
70
1
10
76.005
20
-5.445
10
91.995
20
-5.445
10
91.995
20
1.395
10
76.005
20
1.395
0
TEXT
8
CONNECTORS
10
76.005
20
1.995
40
1.60
1
J7 S2S
0
LWPOLYLINE
8
TALL_PARTS
90
4
70
1
10
76.005
20
3.055
10
89.495
20
3.055
10
89.495
20
9.895
10
76.005
20
9.895
0
TEXT
8
TALL_PARTS
10
76.005
20
0.855
40
1.60
1
J8 h10
0
LWPOLYLINE
8
CONNECTORS
90
4
70
1
10
76.005
20
3.055
10
89.495
20
3.055
10
89.495
20
9.895
10
76.005
20
9.895
0
TEXT
8
CONNECTORS
10
76.005
20
10.495
40
1.60
1
J8 encoder
0
LWPOLYLINE
8
TALL_PARTS
90
4
70
1
10
54.005
20
8.580
10
64.995
20
8.580
10
64.995
20
15.420
10
54.005
20
15.420
0
TEXT
8
TALL_PARTS
10
54.005
20
6.380
40
1.60
1
J9 h10
0
LWPOLYLINE
8
CONNECTORS
90
4
70
1
10
54.005
20
8.580
10
64.995
20
8.580
10
64.995
20
15.420
10
54.005
20
15.420
0
TEXT
8
CONNECTORS
10
54.005
20
16.020
40
1.60
1
J9 hall
0
LWPOLYLINE
8
TALL_PARTS
90
4
70
1
10
-0.775
20
27.175
10
18.115
20
27.175
10
18.115
20
33.355
10
-0.775
20
33.355
0
TEXT
8
TALL_PARTS
10
-0.775
20
24.975
40
1.60
1
J_AMP h14
0
LWPOLYLINE
8
CONNECTORS
90
4
70
1
10
-0.775
20
27.175
10
18.115
20
27.175
10
18.115
20
33.355
10
-0.775
20
33.355
0
TEXT
8
CONNECTORS
10
-0.775
20
33.955
40
1.60
1
J_AMP amp module
0
LWPOLYLINE
8
VENT_ZONES
90
4
70
1
10
-0.330
20
23.265
10
17.670
20
23.265
10
17.670
20
37.265
10
-0.330
20
37.265
0
TEXT
8
VENT_ZONES
10
-0.330
20
37.865
40
1.60
1
vent: MAX9744 amp module 2-4 W
0
LWPOLYLINE
8
TALL_PARTS
90
4
70
1
10
22.485
20
-19.595
10
26.115
20
-19.595
10
26.115
20
19.595
10
22.485
20
19.595
0
TEXT
8
TALL_PARTS
10
22.485
20
-21.795
40
1.60
1
J_U1A h13.6
0
LWPOLYLINE
8
TALL_PARTS
90
4
70
1
10
47.885
20
-19.595
10
51.515
20
-19.595
10
51.515
20
19.595
10
47.885
20
19.595
0
TEXT
8
TALL_PARTS
10
47.885
20
-21.795
40
1.60
1
J_U1B h13.6
0
LWPOLYLINE
8
TALL_PARTS
90
4
70
1
10
-19.010
20
22.720
10
-16.230
20
22.720
10
-16.230
20
45.820
10
-19.010
20
45.820
0
TEXT
8
TALL_PARTS
10
-19.010
20
20.520
40
1.60
1
J_U2A h13.3
0
LWPOLYLINE
8
TALL_PARTS
90
4
70
1
10
-3.770
20
22.720
10
-0.990
20
22.720
10
-0.990
20
45.820
10
-3.770
20
45.820
0
TEXT
8
TALL_PARTS
10
-3.770
20
20.520
40
1.60
1
J_U2B h13.3
0
LWPOLYLINE
8
TALL_PARTS
90
4
70
1
10
-16.470
20
21.450
10
-3.530
20
21.450
10
-3.530
20
24.230
10
-16.470
20
24.230
0
TEXT
8
TALL_PARTS
10
-16.470
20
19.250
40
1.60
1
J_U2C h13.3
0
LWPOLYLINE
8
TALL_PARTS
90
4
70
1
10
-43.765
20
0.735
10
-22.735
20
0.735
10
-22.735
20
19.265
10
-43.765
20
19.265
0
TEXT
8
TALL_PARTS
10
-43.765
20
-1.465
40
1.60
1
PS1 h9
0
LWPOLYLINE
8
VENT_ZONES
90
4
70
1
10
-42.250
20
3.000
10
-24.250
20
3.000
10
-24.250
20
17.000
10
-42.250
20
17.000
0
TEXT
8
VENT_ZONES
10
-42.250
20
17.600
40
1.60
1
vent: 5 V buck ~2.5 W
0
LWPOLYLINE
8
TALL_PARTS
90
4
70
1
10
-43.765
20
-18.515
10
-25.235
20
-18.515
10
-25.235
20
0.015
10
-43.765
20
0.015
0
TEXT
8
TALL_PARTS
10
-43.765
20
-20.715
40
1.60
1
PS2 h9
0
LWPOLYLINE
8
VENT_ZONES
90
4
70
1
10
-43.500
20
-16.250
10
-25.500
20
-16.250
10
-25.500
20
-2.250
10
-43.500
20
-2.250
0
TEXT
8
VENT_ZONES
10
-43.500
20
-1.650
40
1.60
1
vent: 6 V buck ~1 W
0
LWPOLYLINE
8
VENT_ZONES
90
4
70
1
10
3.205
20
-52.595
10
21.205
20
-52.595
10
21.205
20
-38.595
10
3.205
20
-38.595
0
TEXT
8
VENT_ZONES
10
3.205
20
-37.995
40
1.60
1
vent: RPP FET ~0.5-1.5 W
0
LWPOLYLINE
8
TALL_PARTS
90
4
70
1
10
59.135
20
-33.365
10
80.865
20
-33.365
10
80.865
20
-11.635
10
59.135
20
-11.635
0
TEXT
8
TALL_PARTS
10
59.135
20
-35.565
40
1.60
1
U3 h12.5
0
LWPOLYLINE
8
CONNECTORS
90
4
70
1
10
59.135
20
-33.365
10
80.865
20
-33.365
10
80.865
20
-11.635
10
59.135
20
-11.635
0
TEXT
8
CONNECTORS
10
59.135
20
-11.035
40
1.60
1
U3 DFPlayer / SD
0
LWPOLYLINE
8
VENT_ZONES
90
4
70
1
10
57.750
20
22.250
10
75.750
20
22.250
10
75.750
20
36.250
10
57.750
20
36.250
0
TEXT
8
VENT_ZONES
10
57.750
20
36.850
40
1.60
1
vent: 3.3 V LDO ~0.5 W
0
ENDSEC
0
EOF
